<svg xmlns="http://www.w3.org/2000/svg" xmlns:xlink="http://www.w3.org/1999/xlink" xmlns:lucid="lucid" width="1777.37" height="2161"><g transform="translate(-1371.9654320987654 340.5)" lucid:page-tab-id=".Q4MUjXso07N"><path d="M1000-500h2500v2500H1000z" fill="#fff"/><path d="M1700-312a8 8 0 0 1 8-8h1224a8 8 0 0 1 8 8v2104a8 8 0 0 1-8 8H1708a8 8 0 0 1-8-8z" stroke="#000" fill-opacity="0"/><use xlink:href="#a" transform="matrix(1,0,0,1,1708,-312) translate(578.4891975308642 17.955555555555552)"/><use xlink:href="#b" transform="matrix(1,0,0,1,1708,-312) translate(620.6972222222222 17.955555555555552)"/><path d="M1499.75 443.3c0 10.9-8.84 19.74-19.75 19.74-10.9 0-19.75-8.84-19.75-19.75 0-10.9 8.84-19.76 19.75-19.76 10.9 0 19.75 8.85 19.75 19.75z" stroke="#333" stroke-width="4" fill="#fff"/><path d="M1480 463.04v49.3a20.7 20.7 0 0 0 3.2 11.07l36.8 58.14m-40-63.2l-40 63.2m0-98.75h80" stroke="#333" stroke-width="4" fill="none"/><path d="M1440 429.54a6 6 0 0 1 6-6h68a6 6 0 0 1 6 6v168a6 6 0 0 1-6 6h-68a6 6 0 0 1-6-6z" fill="none"/><use xlink:href="#c" transform="matrix(1,0,0,1,1360,581.5435752416267) translate(41.070370370370384 17.955555555555552)"/><path d="M1499.75-22.26c0 10.9-8.84 19.75-19.75 19.75-10.9 0-19.75-8.86-19.75-19.76 0-10.9 8.84-19.75 19.75-19.75 10.9 0 19.75 8.83 19.75 19.74z" stroke="#333" stroke-width="4" fill="#fff"/><path d="M1480-2.5v49.3a20.7 20.7 0 0 0 3.2 11.06L1520 116m-40-63.2l-40 63.2m0-98.76h80" stroke="#333" stroke-width="4" fill="none"/><path d="M1440-36a6 6 0 0 1 6-6h68a6 6 0 0 1 6 6v168a6 6 0 0 1-6 6h-68a6 6 0 0 1-6-6z" fill="none"/><use xlink:href="#d" transform="matrix(1,0,0,1,1360,115.98671843973742) translate(32.96543209876545 17.955555555555552)"/><path d="M1499.75 907.77c0 10.9-8.84 19.75-19.75 19.75-10.9 0-19.75-8.84-19.75-19.75 0-10.9 8.84-19.75 19.75-19.75 10.9 0 19.75 8.84 19.75 19.75z" stroke="#333" stroke-width="4" fill="#fff"/><path d="M1480 927.52v49.3a20.7 20.7 0 0 0 3.2 11.07L1520 1046m-40-63.2l-40 63.2m0-98.75h80" stroke="#333" stroke-width="4" fill="none"/><path d="M1440 894.02a6 6 0 0 1 6-6h68a6 6 0 0 1 6 6v168a6 6 0 0 1-6 6h-68a6 6 0 0 1-6-6z" fill="none"/><use xlink:href="#e" transform="matrix(1,0,0,1,1360,1046.0190477953665) translate(57.87253086419754 17.955555555555552)"/><path d="M2100-1.48c0 21.27-35.82 38.52-80 38.52s-80-17.25-80-38.52c0-21.27 35.82-38.52 80-38.52s80 17.25 80 38.52z" stroke="#000" fill="#fcce14"/><use xlink:href="#f" transform="matrix(1,0,0,1,1964,-24.592419093081425) translate(37.05 27.1)"/><path d="M2100 198.52c0 21.27-35.82 38.52-80 38.52s-80-17.25-80-38.52c0-21.27 35.82-38.52 80-38.52s80 17.25 80 38.52z" stroke="#000" fill="#fcce14"/><use xlink:href="#g" transform="matrix(1,0,0,1,1964,175.40758090691858) translate(26.075 27.1)"/><path d="M1482.5 36.35l458.73-28.63M1482.5 36.35l-3.5.22" stroke="#000" fill="none"/><path d="M1941.6 7.4l.37.75-.72.04-.06-.96.3-.02z" stroke="#000" stroke-width=".05"/><path d="M1482.47 36.9l456.56 161.45M1482.48 36.9l-3.3-1.18" stroke="#000" fill="none"/><path d="M1939.52 198.02l-.02.5v.5l-.64-.23.32-.9z" stroke="#000" stroke-width=".05"/><path d="M1482.42 502l456.66-303.2M1482.43 502l-2.93 1.94" stroke="#000" fill="none"/><path d="M1939.5 198.5v.2l.02.38-.18.12-.53-.8.72-.46z" stroke="#000" stroke-width=".05"/><path d="M1481.72 502.65l322.57-347.08c-2.03-1.88-2.15-5.05-.27-7.07 1.88-2.02 5.05-2.14 7.07-.26l130.3-140.2M1481.73 502.64l-.35.38" stroke="#000" fill="none"/><path d="M1941.6 7.4l.36.73-.23.26-.7-.66.48-.5z" stroke="#000" stroke-width=".05"/><path d="M2100 446.5c0 21.27-35.82 38.52-80 38.52s-80-17.25-80-38.52c0-21.28 35.82-38.52 80-38.52s80 17.24 80 38.52z" stroke="#000" fill="#fcce14"/><use xlink:href="#h" transform="matrix(1,0,0,1,1964,423.3858410501403) translate(21.025 27.1)"/><path d="M2100 638.52c0 21.27-35.82 38.52-80 38.52s-80-17.25-80-38.52c0-21.27 35.82-38.52 80-38.52s80 17.25 80 38.52z" stroke="#000" fill="#fcce14"/><use xlink:href="#i" transform="matrix(1,0,0,1,1964,615.4075809069186) translate(-0.9500000000000028 27.1)"/><path d="M2119.43 1032.5c0 21.27-35.82 38.52-80 38.52-44.2 0-80-17.25-80-38.52 0-21.28 35.8-38.52 80-38.52 44.18 0 80 17.24 80 38.52z" stroke="#000" fill="#fcce14"/><use xlink:href="#j" transform="matrix(1,0,0,1,1983.427324724718,1009.3853206546198) translate(12.524999999999999 27.1)"/><path d="M2100 1193.12c0 21.28-35.82 38.52-80 38.52s-80-17.24-80-38.52c0-21.27 35.82-38.5 80-38.5s80 17.23 80 38.5z" stroke="#000" fill="#fcce14"/><use xlink:href="#k" transform="matrix(1,0,0,1,1964,1170.0123387725696) translate(21.025 27.1)"/><path d="M3085.03-138.9c0 10.9-8.85 19.74-19.76 19.74-10.9 0-19.74-8.84-19.74-19.75 0-10.92 8.84-19.76 19.74-19.76 10.9 0 19.76 8.84 19.76 19.75z" stroke="#333" stroke-width="4" fill="#fff"/><path d="M3065.28-119.16v49.3a20.7 20.7 0 0 0 3.2 11.07l36.8 58.14m-40-63.2l-40 63.2m0-98.75h80" stroke="#333" stroke-width="4" fill="none"/><path d="M3025.28-152.66a6 6 0 0 1 6-6h68a6 6 0 0 1 6 6v168a6 6 0 0 1-6 6h-68a6 6 0 0 1-6-6z" fill="none"/><use xlink:href="#l" transform="matrix(1,0,0,1,2945.2746593680336,-0.6586821054029315) translate(78.2283950617284 17.955555555555552)"/><path d="M1482.5 501.8l456.5-55.24M1482.5 501.8l-3.48.43" stroke="#000" fill="none"/><path d="M1939.5 446.5v.47l-.45.06-.12-.94.6-.08z" stroke="#000" stroke-width=".05"/><path d="M1482.48 502.42l456.54 135.96M1482.5 502.42l-3.38-1" stroke="#000" fill="none"/><path d="M1939.52 638.03l-.02.48v.52l-.63-.2.27-.9z" stroke="#000" stroke-width=".05"/><path d="M3085.03 549.14c0 10.9-8.85 19.75-19.76 19.75-10.9 0-19.74-8.85-19.74-19.76 0-10.9 8.84-19.75 19.74-19.75 10.9 0 19.76 8.84 19.76 19.74z" stroke="#333" stroke-width="4" fill="#fff"/><path d="M3065.28 568.9v49.3a20.7 20.7 0 0 0 3.2 11.06l36.8 58.13m-40-63.2l-40 63.2m0-98.76h80" stroke="#333" stroke-width="4" fill="none"/><path d="M3025.28 535.4a6 6 0 0 1 6-6h68a6 6 0 0 1 6 6v168a6 6 0 0 1-6 6h-68a6 6 0 0 1-6-6z" fill="none"/><use xlink:href="#m" transform="matrix(1,0,0,1,2945.2746593680336,687.3938628892708) translate(60.80277777777779 17.955555555555552)"/><path d="M3062.83 607.9l-337.3-170.97M3062.82 607.9l3.13 1.58" stroke="#000" fill="none"/><path d="M2725.75 436.5l-.43.86-.26-.14.02-.5v-.56z" stroke="#000" stroke-width=".05"/><path d="M3085.03 939.18c0 10.9-8.85 19.75-19.76 19.75-10.9 0-19.74-8.85-19.74-19.75s8.84-19.75 19.74-19.75c10.9 0 19.76 8.84 19.76 19.75z" stroke="#333" stroke-width="4" fill="#fff"/><path d="M3065.28 958.93v49.3a20.7 20.7 0 0 0 3.2 11.07l36.8 58.13m-40-63.2l-40 63.2m0-98.75h80" stroke="#333" stroke-width="4" fill="none"/><path d="M3025.28 925.43a6 6 0 0 1 6-6h68a6 6 0 0 1 6 6v168a6 6 0 0 1-6 6h-68a6 6 0 0 1-6-6z" fill="none"/><use xlink:href="#n" transform="matrix(1,0,0,1,2945.2746593680336,1077.4261922449) translate(69.56234567901237 17.955555555555552)"/><path d="M1482.33 502.65l476.26 529.48M1482.34 502.66l-2.35-2.6" stroke="#000" fill="none"/><path d="M1958.95 1031.8l-.02.7v.16l.02.57-.72-.8.7-.63z" stroke="#000" stroke-width=".05"/><path d="M3062.8 998.32l-336.1 116.12M3062.8 998.33l3.3-1.15" stroke="#000" fill="none"/><path d="M2726.87 1114.9l-.66.2.03-.5v-.16l-.02-.33.36-.1z" stroke="#000" stroke-width=".05"/><path d="M1482.18 37.18l127.2 321.5c2.56-1.02 5.46.24 6.48 2.8 1.02 2.57-.24 5.47-2.8 6.5l12.97 32.8c2.57-1.02 5.47.24 6.5 2.8 1 2.57-.25 5.48-2.82 6.5l26.08 65.9c2.56-1.03 5.47.23 6.5 2.8 1 2.56-.26 5.47-2.83 6.5l29.5 74.52c2.56-1 5.47.24 6.48 2.8 1.02 2.58-.24 5.5-2.8 6.5l116.33 294.07c2.57-1 5.48.24 6.5 2.8 1 2.58-.25 5.48-2.82 6.5l126.68 320.2M1482.2 37.2l-1.3-3.27" stroke="#000" fill="none"/><path d="M1939.5 1193.12v.17l.05 1.2v.05l-.68-1.73.65-.25z" stroke="#000" stroke-width=".05"/><path d="M3085.03 190.73c0 10.9-8.85 19.75-19.76 19.75-10.9 0-19.74-8.84-19.74-19.75 0-10.9 8.84-19.75 19.74-19.75 10.9 0 19.76 8.84 19.76 19.75z" stroke="#333" stroke-width="4" fill="#fff"/><path d="M3065.28 210.48v49.3a20.7 20.7 0 0 0 3.2 11.07l36.8 58.13m-40-63.2l-40 63.2m0-98.75h80" stroke="#333" stroke-width="4" fill="none"/><path d="M3025.28 176.98a6 6 0 0 1 6-6h68a6 6 0 0 1 6 6v168a6 6 0 0 1-6 6h-68a6 6 0 0 1-6-6z" fill="none"/><use xlink:href="#o" transform="matrix(1,0,0,1,2945.2746593680336,328.98193289727004) translate(57.06203703703705 17.955555555555552)"/><path d="M2720 202.67c0 21.28-35.82 38.52-80 38.52s-80-17.25-80-38.53c0-21.27 35.82-38.52 80-38.52s80 17.25 80 38.52z" stroke="#000" fill="#fcce14"/><use xlink:href="#p" transform="matrix(1,0,0,1,2584,179.5611710843828) translate(-8.900000000000006 27.1)"/><path d="M2102.05 446.26l-.9.44-.4-.85.9-.44zm5.38-2.64l-1.8.88-.4-.86 1.78-.88zm5.38-2.65l-1.78.88-.42-.85 1.8-.88zm5.38-2.65l-1.8.9-.4-.87 1.8-.88zm5.38-2.64l-1.8.88-.4-.85 1.78-.87zm5.38-2.65l-1.8.9-.4-.87 1.78-.88zm5.38-2.64l-1.8.87-.42-.85 1.8-.88zm5.37-2.66l-1.8.88-.42-.85 1.8-.88zm5.37-2.64l-1.8.88-.4-.86 1.78-.88zm5.38-2.65l-1.8.88-.4-.85 1.78-.88zm5.37-2.65l-1.8.9-.4-.87 1.78-.88zm5.38-2.64l-1.8.88-.4-.85 1.78-.9zm5.38-2.65l-1.8.9-.4-.86 1.78-.88zm5.37-2.63l-1.8.88-.4-.85 1.78-.9zm5.38-2.65l-1.8.88-.4-.85 1.78-.88zm5.38-2.65l-1.78.9-.42-.87 1.8-.88zm5.4-2.64l-1.8.88-.43-.84 1.8-.88zm5.36-2.65l-1.8.9-.4-.87 1.78-.87zm5.38-2.64l-1.8.88-.4-.85 1.78-.88zm5.38-2.65l-1.8.87-.42-.85 1.8-.88zm5.37-2.65l-1.8.88-.42-.85 1.8-.9zm5.37-2.65l-1.8.88-.4-.85 1.78-.88zm5.38-2.64l-1.8.88-.4-.86 1.78-.88zm5.37-2.65l-1.8.9-.4-.86 1.78-.88zm5.38-2.64l-1.8.88-.4-.85 1.78-.9zm5.38-2.64l-1.8.88-.4-.85 1.78-.88zm5.37-2.65l-1.8.88-.4-.85 1.78-.88zm5.38-2.64l-1.8.88-.4-.84 1.78-.9zm5.38-2.65l-1.78.88-.42-.85 1.8-.87zm5.4-2.64l-1.8.88-.43-.86 1.8-.88zm5.36-2.65l-1.8.87-.4-.85 1.78-.88zm5.38-2.66l-1.8.88-.4-.85 1.78-.88zm5.38-2.64l-1.8.88-.42-.85 1.8-.88zm5.37-2.65l-1.8.88-.42-.85 1.8-.88zm5.37-2.64l-1.8.9-.4-.87 1.78-.88zm5.38-2.64l-1.8.88-.4-.85 1.78-.9zm5.37-2.65l-1.8.9-.4-.86 1.78-.88zm5.38-2.63l-1.8.88-.4-.85 1.78-.88zm5.38-2.65l-1.8.88-.4-.85.43-.22h1.68zm53.44-27.12h-.47l.38-.2zm5.7-1.98l-1.8.88-.4-.85 1.78-.88zm5.38-2.65l-1.8.9-.4-.87 1.78-.88zm5.38-2.64l-1.8.88-.4-.84 1.78-.88zm5.37-2.65l-1.8.88-.4-.85 1.8-.87zm5.38-2.64l-1.8.88-.4-.85 1.78-.9zm5.38-2.65l-1.78.87-.42-.85 1.8-.88zm5.38-2.65l-1.8.88-.4-.86 1.8-.88zm5.38-2.65l-1.8.88-.4-.85 1.78-.88zm5.38-2.65l-1.8.88-.4-.85 1.78-.88zm5.38-2.64l-1.8.9-.42-.86 1.8-.88zm5.37-2.64l-1.8.88-.42-.85 1.8-.9zm5.37-2.64l-1.8.88-.4-.85 1.78-.9zm5.38-2.65l-1.8.88-.4-.85 1.78-.88zm5.37-2.64l-1.8.88-.4-.85 1.78-.88zm5.38-2.65l-1.8.88-.4-.85 1.78-.87zm5.38-2.65l-1.8.88-.4-.84 1.78-.88zm5.37-2.64l-1.8.87-.4-.85 1.8-.88zm5.38-2.66l-1.8.88-.4-.85 1.78-.88zm5.38-2.64l-1.78.88-.42-.86 1.8-.88zm5.38-2.65l-1.8.88-.4-.85 1.78-.88zm5.38-2.65l-1.8.9-.4-.87 1.78-.88zm5.38-2.64l-1.8.88-.4-.85 1.78-.9zm5.38-2.65l-1.8.9-.42-.86 1.8-.88zm5.37-2.63l-1.8.88-.42-.85 1.8-.9zm5.37-2.65l-1.8.88-.4-.85 1.78-.88zm5.38-2.64l-1.8.88-.4-.86 1.78-.88zm5.37-2.65l-1.8.88-.4-.84 1.78-.88zm5.38-2.65l-1.8.9-.4-.87 1.78-.87zm5.38-2.64l-1.8.88-.42-.85 1.8-.88zm5.37-2.65l-1.8.87-.4-.85 1.78-.88zm5.38-2.65l-1.8.88-.4-.85 1.78-.9zm5.38-2.65l-1.78.88-.42-.85 1.8-.88zm5.4-2.64l-1.8.88-.43-.85 1.8-.9zm5.36-2.65l-1.8.9-.4-.86 1.78-.88zm5.38-2.64l-1.8.9-.4-.87 1.78-.9zm4.48-2.2l-.9.44-.42-.85.9-.44z" stroke="#000" stroke-width=".05"/><path d="M2564.7 218.08l-8.33 12.46-6.62-13.46z"/><path d="M2565.57 217.66l-9.26 13.83-7.34-14.95zm-9.14 11.93l7.43-11.1-13.32-.9z" stroke="#000" stroke-width=".05"/><path d="M2101.17 446.7l-.7.34.03-.54v-.52l.25-.13z"/><path stroke="#000" stroke-width=".05"/><use xlink:href="#q" transform="matrix(1,0,0,1,2271.395773795568,318.59951732487343) translate(0.005000000000002558 17.955555555555552)"/><path d="M3062.78 249.65l-341.8-46.9M3062.77 249.65l3.48.47" stroke="#000" fill="none"/><path d="M2721.07 202.27l-.13.94-.45-.05v-.95z" stroke="#000" stroke-width=".05"/><path d="M2720 45.6c0 21.26-35.82 38.5-80 38.5s-80-17.24-80-38.5c0-21.3 35.82-38.53 80-38.53s80 17.24 80 38.52z" stroke="#000" fill="#fcce14"/><use xlink:href="#r" transform="matrix(1,0,0,1,2584,22.474529766047105) translate(22.049999999999997 27.1)"/><path d="M2720-108.5c0 21.28-35.82 38.53-80 38.53s-80-17.25-80-38.52c0-21.26 35.82-38.5 80-38.5s80 17.24 80 38.5z" stroke="#000" fill="#fcce14"/><use xlink:href="#s" transform="matrix(1,0,0,1,2584,-131.60127930313868) translate(15.600000000000001 27.1)"/><path d="M2101.14-7.26l-.97.22-.2-.93.97-.22zm5.84-1.28l-1.95.43-.2-.94 1.94-.43zm5.83-1.28l-1.94.43-.2-.92 1.95-.43zm5.84-1.28l-1.94.42-.2-.93 1.94-.43zm5.84-1.3l-1.95.44-.2-.93 1.95-.4zm5.83-1.27l-1.93.43-.2-.93 1.94-.43zm5.85-1.28l-1.95.43-.2-.93 1.94-.43zm5.83-1.28l-1.94.42-.2-.93 1.94-.43zm5.84-1.3l-1.95.44-.2-.92 1.94-.42zm5.83-1.27l-1.94.43-.2-.93 1.95-.43zm5.84-1.28l-1.96.43-.2-.93 1.94-.43zm5.82-1.28l-1.94.42-.2-.92 1.94-.43zm5.84-1.3l-1.95.44-.2-.93 1.95-.42zm5.83-1.27l-1.95.43-.2-.93 1.94-.43zm5.82-1.28l-1.94.42-.2-.93 1.94-.44zm5.84-1.3l-1.94.43-.2-.92 1.94-.42zm5.83-1.28l-1.95.43-.2-.93 1.94-.42zm5.83-1.28l-1.95.43-.2-.93 1.95-.43zm5.83-1.28l-1.94.43-.2-.94 1.94-.43zm5.84-1.28l-1.95.42-.2-.92 1.94-.43zm5.83-1.3l-1.94.44-.22-.93 1.95-.43zm5.84-1.27l-1.95.44-.2-.93 1.94-.42zm5.83-1.27l-1.94.43-.2-.93 1.94-.43zm5.84-1.28l-1.95.42-.2-.92 1.93-.43zm5.83-1.28l-1.94.42-.2-.94 1.94-.42zm5.84-1.3l-1.94.44-.2-.92 1.94-.43zm5.84-1.27l-1.94.43-.2-.93 1.94-.43zm5.84-1.28l-1.95.43-.2-.93 1.94-.43zm5.83-1.28l-1.93.42-.2-.93 1.94-.42zm5.84-1.3l-1.94.44-.1-.46h2.04zm122.53-26.92l-1.67.37v-.4h-.37l-.1-.48 1.94-.43zm5.84-1.28l-1.94.43-.2-.93 1.94-.43zm5.84-1.28l-1.94.42-.2-.92 1.94-.43zm5.84-1.3l-1.95.44-.2-.93 1.94-.42zm5.83-1.27l-1.93.42-.2-.93 1.94-.44zm5.85-1.3l-1.95.44-.2-.93 1.94-.42zm5.83-1.27l-1.95.42-.2-.92 1.95-.43zm5.83-1.3l-1.93.44-.2-.93 1.94-.42zm5.85-1.27l-1.95.43-.2-.94 1.94-.43zm5.83-1.28l-1.94.43-.2-.92 1.94-.43zm5.84-1.28l-1.95.42-.2-.92 1.94-.43zm5.83-1.3l-1.94.44-.2-.93 1.95-.4zm5.84-1.27l-1.96.43-.2-.93 1.94-.43zm5.82-1.28l-1.94.43-.2-.93 1.94-.43zm5.84-1.28l-1.95.42-.2-.93 1.95-.43zm5.83-1.3l-1.95.44-.2-.92 1.94-.42zm5.83-1.27l-1.95.43-.2-.93 1.94-.43zm5.83-1.28l-1.94.43-.2-.93 1.94-.43zm5.84-1.28l-1.95.42-.2-.92 1.94-.43zm5.83-1.3l-1.95.44-.2-.93 1.95-.42zm5.84-1.27l-1.95.43-.2-.93 1.94-.43zm5.83-1.28l-1.95.42-.2-.93 1.95-.44zm5.83-1.3l-1.94.43-.22-.92 1.95-.42zm5.84-1.28l-1.95.43-.2-.93 1.94-.42zm5.83-1.28l-1.94.43-.2-.93 1.94-.42zm5.84-1.28l-1.95.43-.2-.94 1.93-.43zm4.86-1.07l-.97.2-.2-.92.97-.22z" stroke="#000" stroke-width=".05"/><path d="M2100.18-7.05l-.47.1-.23-.82.5-.2z"/><path stroke="#000" stroke-width=".05"/><path d="M2557.92-108.14l-12.94 7.6-2-9.07z"/><path d="M2559.42-108.47l-14.76 8.66-2.27-10.34zm-14.12 7.18l11.12-6.5-12.82-1.27z" stroke="#000" stroke-width=".05"/><use xlink:href="#q" transform="matrix(1,0,0,1,2267.878720524334,-71.41144913382405) translate(0.005000000000002558 17.955555555555552)"/><path d="M2102.07 198.5l-.95.3-.3-.9.95-.3zm5.68-1.9l-1.9.64-.3-.9 1.9-.64zm5.68-1.9l-1.9.64-.3-.9 1.9-.63zm5.68-1.88l-1.88.63-.3-.9 1.9-.63zm5.7-1.9l-1.9.64-.3-.9 1.9-.63zm5.67-1.88l-1.9.63-.3-.9 1.9-.64zm5.68-1.9l-1.9.63-.3-.9 1.9-.63zm5.68-1.9l-1.9.64-.3-.9 1.9-.63zm5.68-1.88l-1.9.63-.3-.9 1.9-.64zm5.68-1.9l-1.9.64-.3-.9 1.9-.63zm5.68-1.9l-1.9.64-.3-.9 1.9-.63zm5.68-1.88l-1.9.63-.3-.9 1.9-.62zm5.68-1.9l-1.9.64-.3-.9 1.9-.63zm5.68-1.88l-1.9.63-.3-.9 1.9-.63zm5.68-1.9l-1.9.63-.3-.9 1.9-.63zm5.68-1.9l-1.9.64-.3-.9 1.9-.63zm5.68-1.88l-1.9.63-.3-.9 1.9-.63zm5.68-1.9l-1.9.64-.3-.9 1.9-.63zm5.68-1.88l-1.9.63-.3-.9 1.9-.64zm5.68-1.9l-1.9.63-.3-.9 1.9-.63zm5.68-1.9l-1.9.64-.3-.9 1.9-.63zm5.68-1.88l-1.9.63-.3-.9 1.9-.64zm5.67-1.9l-1.88.64-.3-.9 1.9-.63zm5.7-1.9l-1.9.64-.3-.9 1.9-.63zm5.67-1.88l-1.9.63-.3-.9 1.9-.62zm5.68-1.9l-1.9.64-.3-.9 1.9-.63zm5.68-1.88l-1.9.63-.3-.9 1.9-.63zm5.68-1.9l-1.88.64-.3-.9 1.9-.64zm5.7-1.9l-1.9.64-.3-.9 1.9-.63zm5.67-1.88l-1.9.63-.3-.9 1.9-.63zm5.68-1.9l-1.9.64-.3-.9 1.9-.63zm5.68-1.88l-1.9.63-.3-.9 1.9-.63zm5.68-1.9l-1.9.63-.3-.9 1.9-.63zm5.7-1.9l-1.9.64-.3-.9.78-.26h1.23zm85.18-28.37l-1.9.63-.3-.9 1.9-.63zm5.68-1.9l-1.9.64-.3-.9 1.9-.63zm5.67-1.9l-1.9.64-.3-.9 1.9-.62zm5.68-1.88l-1.88.62-.3-.9 1.9-.63zm5.7-1.9l-1.9.63-.3-.9 1.9-.63zm5.67-1.9l-1.9.64-.3-.9 1.9-.63zm5.68-1.9l-1.9.64-.3-.9 1.9-.63zm5.68-1.88l-1.9.63-.3-.9 1.9-.63zm5.68-1.9l-1.88.64-.3-.9 1.9-.63zm5.7-1.88l-1.9.63-.3-.9 1.9-.63zm5.67-1.9l-1.9.64-.3-.9 1.9-.64zm5.68-1.9l-1.9.64-.3-.9 1.9-.63zm5.68-1.88l-1.9.63-.3-.9 1.9-.64zm5.68-1.9l-1.9.64-.3-.9 1.9-.63zm5.68-1.88l-1.9.63-.3-.9 1.9-.63zm5.68-1.9l-1.9.64-.3-.9 1.9-.64zm5.68-1.9l-1.9.64-.3-.9 1.9-.63zm5.68-1.88l-1.9.63-.3-.9 1.9-.63zm5.68-1.9l-1.9.64-.3-.9 1.9-.63zm5.68-1.88l-1.9.63-.3-.9 1.9-.64zm5.68-1.9l-1.9.63-.3-.9 1.9-.63zm5.68-1.9l-1.9.64-.3-.9 1.9-.63zm5.68-1.88l-1.9.63-.3-.9 1.9-.63zm5.68-1.9l-1.9.64-.3-.9 1.9-.64zm5.68-1.9l-1.9.64-.3-.9 1.9-.63zm5.68-1.88l-1.9.63-.3-.9 1.9-.64zm5.68-1.9l-1.9.64-.3-.9 1.9-.63zm5.67-1.88l-1.88.63-.3-.9 1.9-.62zm5.7-1.9l-1.9.63-.3-.9 1.9-.62zm5.67-1.9l-1.9.64-.3-.9 1.9-.63zm4.74-1.56l-.94.3-.3-.9.95-.3z" stroke="#000" stroke-width=".05"/><path d="M2101.14 198.8l-.66.22.02-.5v-.5l.34-.1z"/><path stroke="#000" stroke-width=".05"/><path d="M2545.9 55l-2.93-8.8 15-.1z"/><path d="M2545.65 55.77l-3.34-10.03 17.12-.13zm-2.03-9.1l2.52 7.56 10.37-7.65z" stroke="#000" stroke-width=".05"/><use xlink:href="#q" transform="matrix(1,0,0,1,2268.3401234579255,108.58576003019404) translate(0.005000000000002558 17.955555555555552)"/><path d="M3062.78-79.97L2721-108.45M3062.76-79.97l3.5.3" stroke="#000" fill="none"/><path d="M2721.05-108.92l-.08.95-.48-.04v-.96z" stroke="#000" stroke-width=".05"/><path d="M3062.8-79.75L2720.97 45.4M3062.8-79.75l3.3-1.2" stroke="#000" fill="none"/><path d="M2721.14 45.86l-.66.24.02-.5v-.52l.32-.12z" stroke="#000" stroke-width=".05"/><path d="M2725.73 1347.2c0 21.27-35.82 38.52-80 38.52-44.2 0-80-17.25-80-38.52 0-21.27 35.8-38.52 80-38.52 44.18 0 80 17.25 80 38.52z" stroke="#000" fill="#fcce14"/><use xlink:href="#t" transform="matrix(1,0,0,1,2589.7267527528224,1324.0881478417552) translate(8.524999999999999 27.1)"/><path d="M3062.93 998.52l-336.36 348.32M3062.92 998.53l2.44-2.53" stroke="#000" fill="none"/><path d="M2726.93 1347.16l-.72.75.03-.7v-.17l-.02-.5.04-.03z" stroke="#000" stroke-width=".05"/><path d="M2725.73 1494.6c0 21.28-35.82 38.52-80 38.52-44.2 0-80-17.24-80-38.5 0-21.3 35.8-38.53 80-38.53 44.18 0 80 17.23 80 38.5z" stroke="#000" fill="#fcce14"/><use xlink:href="#u" transform="matrix(1,0,0,1,2589.7267527528224,1471.4933865052733) translate(0.04999999999999716 27.1)"/><path d="M3063 998.57l-336.5 495.62M3063 998.58l1.96-2.9" stroke="#000" fill="none"/><path d="M2726.9 1494.45l-.7 1.04.03-.9v-.16l-.02-.47z" stroke="#000" stroke-width=".05"/><path d="M2100 1347.2c0 21.27-35.82 38.52-80 38.52s-80-17.25-80-38.52c0-21.27 35.82-38.52 80-38.52s80 17.25 80 38.52z" stroke="#000" fill="#fcce14"/><use xlink:href="#v" transform="matrix(1,0,0,1,1964,1324.0881478417552) translate(8.574999999999996 27.1)"/><path d="M2116.5 1347.67h-1.5v-.95h1.5zm5 0h-3v-.95h3zm4.98 0h-3v-.95h3zm5 0h-3v-.95h3zm5 0h-3v-.95h3zm5 0h-3v-.95h3zm5 0h-3v-.95h3zm5 0h-3v-.95h3zm5 0h-3v-.95h3zm4.98 0h-3v-.95h3zm5 0h-3v-.95h3zm5 0h-3v-.95h3zm5 0h-3v-.95h3zm5 0h-3v-.95h3zm5 0h-3v-.95h3zm5 0h-3v-.95h3zm4.98 0h-3v-.95h3zm5 0h-3v-.95h3zm5 0h-3v-.95h3zm5 0h-3v-.95h3zm5 0h-3v-.95h3zm5 0h-3v-.95h3zm5 0h-3v-.95h3zm4.98 0h-3v-.95h3zm5 0h-3v-.95h3zm5 0h-3v-.95h3zm5 0h-3v-.95h3zm5 0h-3v-.95h3zm5 0h-3v-.95h3zm5 0h-3v-.95h3zm4.98 0h-3v-.95h3zm139.92 0h-3v-.95h3zm5 0h-3v-.95h3zm5 0h-3v-.95h3zm5 0h-3v-.95h3zm5 0h-3v-.95h3zm4.98 0h-3v-.95h3zm5 0h-3v-.95h3zm5 0h-3v-.95h3zm5 0h-3v-.95h3zm5 0h-3v-.95h3zm5 0h-3v-.95h3zm5 0h-3v-.95h3zm4.98 0h-3v-.95h3zm5 0h-3v-.95h3zm5 0h-3v-.95h3zm5 0h-3v-.95h3zm5 0h-3v-.95h3zm5 0h-3v-.95h3zm5 0h-3v-.95h3zm4.98 0h-3v-.95h3zm5 0h-3v-.95h3zm5 0h-3v-.95h3zm5 0h-3v-.95h3zm5 0h-3v-.95h3zm5 0h-3v-.95h3zm5 0h-3v-.95h3zm4.98 0h-3v-.95h3zm5 0h-3v-.95h3zm5 0h-3v-.95h3zm5 0h-3v-.95h3zm5 0h-3v-.95h3zm5 0h-3v-.95h3zm3.5 0h-1.5v-.95h1.5zm-163.42 0h-3v-.95h3z" stroke="#000" stroke-width=".05"/><path d="M2114.5 1354.7l-13-7.5 13-7.5z"/><path d="M2114.97 1355.52l-14.42-8.32 14.4-8.32zm-12.52-8.32l11.57 6.68v-13.36z" stroke="#000" stroke-width=".05"/><path d="M2565.23 1347.2v.47h-.52v-.95h.54z"/><path stroke="#000" stroke-width=".05"/><use xlink:href="#w" transform="matrix(1,0,0,1,2267.400413414584,1333.7328525354665) translate(0.0049999999999954525 17.955555555555552)"/><path d="M2564.9 1494l-.3.9-1.42-.45.3-.9zm-3.33-1.05l-.28.9-2.86-.9.3-.9zm-4.74-1.5l-.28.9-2.85-.9.3-.9zm-4.74-1.5l-.3.9-2.84-.9.3-.9zm-4.75-1.5l-.3.9-2.83-.9.3-.92zm-4.74-1.52l-.28.9-2.84-.9.28-.9zm-4.73-1.5l-.3.9-2.84-.9.3-.9zm-4.74-1.5l-.3.9-2.84-.9.28-.9zm-4.74-1.5l-.3.9-2.85-.9.3-.9zm-4.76-1.5l-.28.9-2.85-.9.3-.92zm-4.74-1.52l-.3.92-2.83-.9.3-.9zm-4.74-1.5l-.3.9-2.83-.9.28-.9zm-4.74-1.5l-.3.9-2.83-.9.27-.9zm-4.74-1.5l-.3.9-2.84-.9.3-.9zm-4.74-1.5l-.3.9-2.84-.9.3-.9zm-4.75-1.5l-.3.9-2.84-.9.3-.9zm-4.75-1.5l-.28.9-2.85-.9.3-.9zm-4.74-1.52l-.28.9-2.84-.9.3-.9zm-4.73-1.5l-.3.9-2.83-.9.28-.9zm-4.74-1.5l-.3.9-2.83-.9.28-.9zm-4.74-1.5l-.3.9-2.84-.9.28-.9zm-4.75-1.5l-.3.9-2.84-.9.3-.9zm-4.75-1.5l-.28.9-2.85-.9.3-.92zm-4.74-1.52l-.28.9-2.85-.9.3-.9zm-4.74-1.5l-.3.9-2.83-.9.28-.9zm-4.74-1.5l-.3.9-2.83-.9.28-.9zm-4.74-1.5l-.3.9-2.83-.9.3-.9zm-4.74-1.5l-.3.9-2.84-.9.3-.92zm-4.74-1.52l-.3.9-2.84-.9.3-.9zm-4.75-1.5l-.27.9-2.85-.9.3-.9zm-4.73-1.5l-.3.9-2.83-.9.3-.9zm-4.74-1.5l-.3.9-2.83-.9.3-.9zm-4.74-1.5l-.3.9-2.84-.9.28-.92zm-4.75-1.52l-.3.9-2.83-.9.28-.9zm-4.74-1.5l-.28.9-2.85-.9.3-.9zm-4.74-1.5l-.28.9-2.85-.9.3-.9zm-4.74-1.5l-.28.9-2.85-.9.28-.9zm-4.74-1.5l-.3.9-2.83-.9.3-.92zm-4.74-1.52l-.3.9-2.83-.9.3-.9zm-4.74-1.5l-.3.9-2.83-.9.28-.9zm-4.74-1.5l-.3.9-2.83-.9.28-.9zm-4.74-1.5l-.3.9-2.84-.9.3-.9zm-4.74-1.5l-.3.9-2.84-.9.3-.9zm-4.75-1.52l-.28.9-2.85-.9.3-.9zm-4.74-1.5l-.3.9-2.84-.9.3-.9zm-4.75-1.5l-.3.9-2.83-.9.3-.9zm-4.74-1.5l-.28.9-2.84-.9.28-.9zm-4.73-1.5l-.3.9-2.83-.9.28-.9zm-4.74-1.52l-.3.9-2.84-.9.28-.9zm-4.74-1.5l-.3.9-2.85-.9.3-.9zm-4.76-1.5l-.28.9-2.85-.9.3-.9zm-4.74-1.5l-.28.9-2.85-.9.3-.9zm-4.74-1.5l-.3.9-2.83-.9.3-.9zm-4.74-1.52l-.3.9-2.83-.9.1-.32h2zm-85.92-27.25h-2.5l.23-.73zm-4.17-1.33l-.3.9-2.83-.9.3-.9zm-4.74-1.5l-.3.9-2.84-.9.28-.9zm-4.75-1.5l-.3.9-2.83-.9.28-.9zm-4.74-1.5l-.28.9-2.85-.9.3-.9zm-4.73-1.52l-.3.9-2.84-.9.3-.9zm-4.75-1.5l-.28.9-2.85-.9.28-.9zm-4.74-1.5l-.28.9-2.85-.9.3-.9zm-4.74-1.5l-.3.9-2.83-.9.3-.9zm-4.74-1.5l-.3.9-2.83-.9.3-.9zm-4.74-1.52l-.3.9-2.83-.9.28-.9zm-4.74-1.5l-.3.9-2.83-.9.27-.9zm-4.74-1.5l-.3.9-2.84-.9.3-.9zm-4.75-1.5l-.28.9-2.85-.9.3-.9zm-4.74-1.5l-.3.9-2.84-.9.3-.9zm-4.75-1.52l-.3.92-2.83-.9.3-.9zm-4.74-1.5l-.28.92-2.84-.9.3-.9zm-4.73-1.5l-.3.9-2.83-.9.28-.9zm-4.74-1.5l-.3.9-2.84-.9.28-.9zm-4.74-1.5l-.3.9-2.85-.9.3-.9zm-4.76-1.5l-.28.9-2.85-.9.3-.9zm-4.74-1.5l-.28.9-2.85-.9.3-.9zm-4.74-1.5l-.3.9-2.83-.9.3-.92zm-4.74-1.52l-.3.9-2.83-.9.28-.9zm-4.74-1.5l-.3.9-1.4-.45.28-.9z" stroke="#000" stroke-width=".05"/><path d="M2111.57 1358.58l-10.12-11.08 14.65-3.22z"/><path d="M2111.77 1359.5l-11.22-12.3 16.25-3.56zm-9.4-11.7l9 9.85 4.03-12.73z" stroke="#000" stroke-width=".05"/><path d="M2565.24 1494.1v1.01l-.65-.2.28-.9z"/><path stroke="#000" stroke-width=".05"/><use xlink:href="#w" transform="matrix(1,0,0,1,2204.519405020963,1387.4904392944907) translate(0.0049999999999954525 17.955555555555552)"/><path d="M1482.38 967.07l456.74 379.8M1482.4 967.08l-2.7-2.25" stroke="#000" fill="none"/><path d="M1939.52 1346.6l-.02.6v.17l.02.46-.72-.6.6-.72z" stroke="#000" stroke-width=".05"/><path d="M1482.45 966.97l456.6 225.93M1482.46 966.98l-3.15-1.56" stroke="#000" fill="none"/><path d="M1939.52 1192.6l-.02.52v.17l.02.36-.7-.34.43-.85z" stroke="#000" stroke-width=".05"/><path d="M2724.58 436.7c0 21.27-35.82 38.52-80 38.52s-80-17.25-80-38.52c0-21.27 35.82-38.52 80-38.52s80 17.25 80 38.52z" stroke="#000" fill="#fcce14"/><use xlink:href="#x" transform="matrix(1,0,0,1,2588.581402202258,413.5876476158268) translate(-4.975000000000001 27.1)"/><path d="M2115.9 448.16l-1 .04-.04-.95 1-.04zm6-.26l-2 .1-.04-.96 2-.1zm6-.25l-2 .08-.03-.95 2-.08zm6.02-.26l-2 .08-.04-.95 2-.1zm6-.27l-2 .1-.04-.96 2-.08zm6-.25l-2 .08-.03-.94 2-.1zm6.02-.26l-2 .1-.04-.96 2-.1zm6-.25l-2 .08-.04-.95 2-.08zm6-.26l-2 .1-.03-.95 2-.1zm6.02-.24l-2 .08-.05-.95 2.02-.1zm6-.26l-2 .1-.04-.96 2-.1zm6-.25l-2 .08-.03-.95 2-.08zm6.02-.26l-2 .08-.05-.95 2-.1zm6-.27l-2 .1-.04-.96 2-.08zm6-.25l-2 .1-.03-.96 2-.1zm6-.26l-2 .1-.03-.96 2-.08zm6.02-.25l-2 .08-.04-.94 2-.08zm6-.26l-2 .1-.04-.95 2-.1zm6-.24l-2 .08-.03-.95 2-.1zm6.02-.26l-2 .1-.04-.96 2-.1zm6-.25l-2 .08-.04-.95 2-.08zm6-.26l-2 .08-.03-.95 2-.1zm6.02-.26l-2 .08-.05-.95 2-.08zm6-.26l-2 .1-.04-.96 2-.1zm6-.25l-2 .08-.03-.94 2-.08zm6.02-.26l-2 .08-.05-.95 2.02-.08zm138.14-5.88l-2 .08-.04-.95 2-.1zm6-.26l-2 .08-.04-.95 2-.08zm6-.26l-2 .1-.03-.96 2-.1zm6.02-.25l-2 .08-.05-.94 2-.08zm6-.26l-2 .1-.04-.96 2-.08zm6-.25l-2 .08-.03-.95 2-.08zm6.02-.26l-2 .1-.05-.96 2-.1zm6-.25l-2 .1-.04-.96 2-.08zm6-.25l-2 .08-.03-.94 2-.1zm6-.26l-2 .08-.03-.95 2-.1zm6.02-.26l-2 .08-.04-.95 2-.08zm6-.26l-2 .1-.04-.96 2-.1zm6-.25l-2 .08-.03-.94 2-.08zm6.02-.26l-2 .1-.04-.96 2-.08zm6-.25l-2 .08-.04-.95 2-.08zm6-.26l-2 .1-.03-.96 2-.1zm6.02-.25l-2 .1-.05-.96 2-.08zm6-.25l-2 .08-.04-.94 2-.1zm6-.25l-2 .08-.03-.95 2-.08zm6.02-.26l-2 .08-.05-.94 2-.1zm6-.26l-2 .1-.04-.96 2-.1zm6-.25l-2 .08-.03-.94 2-.08zm6-.26l-2 .1-.03-.96 2-.08zm6.02-.25l-2 .08-.04-.95 2-.08zm6-.26l-2 .1-.04-.96 2-.1zm6-.25l-2 .1-.03-.96 2-.08zm6.02-.25l-2 .1-.04-.96 2-.1zm5-.2l-1 .03-.04-.95 1-.04z" stroke="#000" stroke-width=".05"/><path d="M2565.64 429.03h-.3l-.03-.94.75-.04z"/><path stroke="#000" stroke-width=".05"/><path d="M2114.7 455.24l-13.3-6.94 12.66-8.05z"/><path d="M2115.2 456.04l-14.75-7.7 14.05-8.93zm-12.85-7.78l11.84 6.18-.58-13.34z" stroke="#000" stroke-width=".05"/><use xlink:href="#w" transform="matrix(1,0,0,1,2267.6603953997333,424.97442935580585) translate(0.0049999999999954525 17.955555555555552)"/><path d="M2722.3 592.4c0 21.26-35.83 38.5-80 38.5-44.2 0-80-17.24-80-38.5 0-21.3 35.8-38.53 80-38.53 44.17 0 80 17.24 80 38.5z" stroke="#000" fill="#fcce14"/><use xlink:href="#y" transform="matrix(1,0,0,1,2586.290701101129,569.2736313188358) translate(11.099999999999994 27.1)"/><path d="M3062.78 607.84L2722.6 597.5M3062.76 607.84l3.5.1" stroke="#000" fill="none"/><path d="M2722.64 597.02l-.03.95-.63-.02.2-.7.06-.24zM2561.46 591.78l-.3.9-.94-.3.28-.9zm-4.78-1.5l-.28.9-1.9-.6.27-.9zm-5.73-1.82l-.3.9-1.9-.6.3-.9zm-5.73-1.8l-.3.9-1.9-.6.3-.92zm-5.73-1.83l-.3.9-1.9-.6.28-.9zm-5.74-1.8l-.3.9-1.9-.6.3-.9zm-5.73-1.82l-.3.9-1.9-.6.3-.9zm-5.73-1.8l-.3.9-1.9-.6.3-.9zm-5.73-1.82l-.3.9-1.9-.6.3-.9zm-5.73-1.8l-.3.9-1.9-.6.3-.9zm-5.74-1.82l-.28.9-1.9-.6.28-.9zm-5.73-1.8l-.28.9-1.92-.6.28-.92zm-5.73-1.82l-.28.9-1.9-.6.27-.9zm-5.73-1.82l-.27.9-1.9-.6.27-.9zm-5.72-1.8l-.28.9-1.9-.6.27-.9zm-5.73-1.82l-.28.9-1.92-.6.3-.9zm-5.73-1.8l-.3.9-1.9-.6.3-.92zm-5.73-1.83l-.3.9-1.9-.6.28-.9zm-5.74-1.8l-.3.9-1.9-.6.3-.9zm-5.73-1.82l-.3.9-1.9-.6.3-.9zm-5.73-1.8l-.3.9-1.9-.6.3-.92zm-5.73-1.83l-.3.9-1.9-.6.3-.9zm-5.73-1.8l-.3.9-1.9-.6.3-.9zm-5.74-1.82l-.28.9-1.9-.6.28-.9zm-5.73-1.8l-.28.9-1.92-.6.28-.92zm-5.73-1.83l-.28.9-1.9-.6.27-.9zm-5.73-1.8l-.27.9-1.9-.6.27-.9zm-5.72-1.82l-.28.9-1.9-.6.27-.9zm-87.1-27.55h-.85l.08-.24zm-4.6-1.45l-.28.9-1.9-.6.28-.9zm-5.72-1.8l-.3.9-1.9-.6.3-.92zm-5.73-1.83l-.3.9-1.9-.6.3-.9zm-5.73-1.8l-.3.9-1.9-.6.3-.9zm-5.73-1.82l-.3.9-1.9-.6.3-.9zm-5.73-1.8l-.3.9-1.9-.6.3-.92zm-5.73-1.82l-.28.9-1.9-.6.28-.9zm-5.72-1.82l-.3.9-1.9-.6.3-.9zm-5.74-1.8l-.28.9-1.9-.6.27-.9zm-5.73-1.82l-.27.9-1.9-.6.27-.9zm-5.72-1.8l-.28.9-1.9-.6.27-.92zm-5.73-1.83l-.28.92-1.9-.6.27-.9zm-5.73-1.8l-.28.9-1.9-.6.27-.9zm-5.73-1.8l-.3.9-1.9-.6.28-.9zm-5.74-1.82l-.3.9-1.9-.6.3-.9zm-5.73-1.82l-.3.9-1.9-.6.3-.9zm-5.73-1.8l-.3.9-1.9-.6.3-.9zm-5.73-1.82l-.3.9-1.9-.6.3-.9zm-5.73-1.8l-.3.9-1.9-.6.3-.92zm-5.73-1.83l-.28.92-1.9-.6.28-.9zm-5.72-1.8l-.3.9-1.9-.6.3-.9zm-5.74-1.8l-.28.9-1.9-.6.27-.9zm-5.73-1.82l-.27.9-1.9-.6.27-.9zm-5.72-1.8l-.28.9-1.9-.6.27-.92zm-5.73-1.83l-.28.9-1.9-.6.27-.9zm-5.73-1.8l-.28.9-1.9-.6.27-.9zm-5.73-1.82l-.3.9-1.9-.6.28-.9zm-5.74-1.8l-.3.9-1.9-.6.3-.92zm-5.73-1.83l-.3.9-1.9-.6.3-.9zm-5.73-1.8l-.3.9-1.9-.6.3-.9zm-5.73-1.82l-.3.9-1.9-.6.3-.9zm-5.73-1.8l-.3.9-1.9-.6.3-.92zm-5.73-1.83l-.28.9-1.9-.6.28-.9zm-5.72-1.8l-.3.9-1.9-.6.3-.9zm-5.74-1.82l-.28.9-1.9-.6.28-.9zm-5.73-1.8l-.27.9-.96-.3.3-.92z" stroke="#000" stroke-width=".05"/><path d="M2561.8 591.9v.99l-.64-.22.3-.9z"/><path stroke="#000" stroke-width=".05"/><path d="M2111.58 457.87l-10.13-11.07 14.65-3.24z"/><path d="M2111.78 458.8l-11.23-12.3 16.25-3.58zm-9.42-11.72l9 9.86 4.04-12.73z" stroke="#000" stroke-width=".05"/><use xlink:href="#w" transform="matrix(1,0,0,1,2296.118653976495,515.600214212598) translate(0.0049999999999954525 17.955555555555552)"/><path d="M2722.3 308.6c0 21.27-35.83 38.52-80 38.52-44.2 0-80-17.25-80-38.52 0-21.28 35.8-38.52 80-38.52 44.17 0 80 17.24 80 38.52z" stroke="#000" fill="#fcce14"/><use xlink:href="#z" transform="matrix(1,0,0,1,2586.290701101129,285.48536201519704) translate(18.575000000000003 27.1)"/><path d="M2115.47 442.52l-.95.28-.27-.9.95-.3zm5.73-1.72l-1.9.57-.28-.9 1.9-.58zm5.73-1.7l-1.9.56-.28-.9 1.9-.58zm5.73-1.72l-1.9.57-.28-.9 1.9-.58zm5.73-1.7l-1.92.56-.27-.9 1.92-.58zm5.72-1.73l-1.9.57-.28-.9 1.9-.58zm5.73-1.7l-1.9.56-.28-.9 1.9-.57zm5.73-1.72l-1.9.57-.28-.9 1.9-.58zm5.73-1.72l-1.9.58-.27-.9 1.9-.58zm5.74-1.7l-1.9.57-.28-.9 1.9-.58zm5.73-1.7l-1.9.56-.28-.9 1.9-.58zm5.73-1.73l-1.9.57-.28-.9 1.9-.58zm5.73-1.7l-1.9.56-.28-.9 1.9-.58zm5.73-1.72l-1.9.57-.28-.9 1.9-.58zm5.73-1.7l-1.92.56-.27-.9 1.92-.57zm5.72-1.73l-1.9.57-.28-.92 1.9-.57zm5.73-1.7l-1.9.56-.28-.9 1.9-.58zm5.73-1.72l-1.9.57-.28-.9 1.9-.58zm5.73-1.72l-1.9.57-.27-.9 1.9-.58zm5.74-1.7l-1.9.56-.28-.9 1.9-.58zm5.73-1.72l-1.9.57-.28-.9 1.9-.58zm5.73-1.7l-1.9.56-.28-.9 1.9-.6zm5.73-1.73l-1.9.57-.28-.9 1.9-.58zm5.73-1.7l-1.9.56-.28-.92 1.9-.57zm5.73-1.72l-1.92.58-.27-.9 1.92-.58zm5.72-1.7l-1.9.56-.28-.9 1.9-.58zm5.73-1.72l-1.9.57-.28-.9 1.9-.58zm5.73-1.7l-1.9.56-.28-.9 1.9-.58zm5.73-1.72l-1.9.57-.27-.9 1.9-.6zm5.74-1.72l-1.9.57-.28-.9 1.9-.57zm5.73-1.7l-1.9.56-.28-.9 1.9-.58zm5.73-1.72l-1.9.57-.28-.92 1.9-.57zm5.73-1.72l-1.9.57-.28-.9 1.9-.58zm5.73-1.7l-1.9.56-.28-.9 1.9-.58zm5.73-1.72l-1.92.57-.27-.9 1.92-.58zm5.72-1.7l-1.9.56-.28-.9 1.04-.32h.94zm91.62-27.6h-2.08l-.05-.16 1.93-.57zm5.8-1.54l-1.92.58-.28-.9 1.9-.58zm5.72-1.7l-1.9.56-.3-.9 1.92-.58zm5.73-1.72l-1.92.57-.28-.92 1.9-.57zm5.72-1.7l-1.9.56-.3-.9 1.92-.58zm5.73-1.73l-1.9.56-.3-.9 1.92-.58zm5.73-1.72l-1.9.57-.3-.9 1.92-.58zm5.73-1.7l-1.9.56-.28-.9 1.9-.58zm5.74-1.73l-1.9.58-.3-.9 1.92-.58zm5.72-1.7l-1.9.56-.28-.9 1.9-.57zm5.73-1.72l-1.9.57-.3-.9 1.92-.58zm5.72-1.7l-1.9.56-.28-.92 1.9-.57zm5.74-1.73l-1.9.57-.3-.9 1.92-.58zm5.72-1.7l-1.9.56-.28-.9 1.9-.58zm5.74-1.72l-1.9.57-.3-.9 1.92-.58zm5.72-1.72l-1.9.58-.28-.92 1.9-.57zm5.73-1.7l-1.9.56-.28-.9 1.9-.58zm5.73-1.72l-1.9.57-.28-.9 1.9-.57zm5.73-1.7l-1.9.56-.28-.9 1.9-.58zm5.73-1.73l-1.9.58-.28-.9 1.9-.58zm5.73-1.7l-1.92.57-.27-.9 1.92-.58zm5.72-1.7l-1.9.56-.28-.9 1.9-.58zm5.73-1.73l-1.9.57-.28-.9 1.9-.58zm5.73-1.7l-1.9.56-.28-.9 1.9-.58zm5.73-1.72l-1.9.57-.27-.9 1.9-.58zm5.74-1.72l-1.9.58-.28-.9 1.9-.57zm5.73-1.7l-1.9.56-.28-.92 1.9-.57zm4.78-1.44l-.96.28-.28-.9.96-.3z" stroke="#000" stroke-width=".05"/><path d="M2561.8 308.6v.49l-.37.1-.27-.9.65-.2z"/><path stroke="#000" stroke-width=".05"/><path d="M2116.05 449.68l-14.6-3.47 10.3-10.9z"/><path d="M2116.74 450.33l-16.2-3.85 11.44-12.1zm-14.37-4.4l13 3.1-3.83-12.8z" stroke="#000" stroke-width=".05"/><use xlink:href="#w" transform="matrix(1,0,0,1,2296.118653976495,354.98154099420674) translate(0.0049999999999954525 17.955555555555552)"/><path d="M3062.9 607.8l-339.73-298.87M3062.9 607.8l2.63 2.3" stroke="#000" fill="none"/><path d="M2723.5 308.58l-.64.7-.1-.07.03-.6v-.17l-.03-.48z" stroke="#000" stroke-width=".05"/><path d="M2725.73 1114.6c0 21.28-35.82 38.52-80 38.52-44.2 0-80-17.24-80-38.5 0-21.3 35.8-38.53 80-38.53 44.18 0 80 17.23 80 38.5z" stroke="#000" fill="#fcce14"/><use xlink:href="#A" transform="matrix(1,0,0,1,2589.7267527528224,1091.493386505273) translate(23.525 27.1)"/><path d="M2723.44 1214.6c0 21.28-35.82 38.52-80 38.52-44.2 0-80-17.24-80-38.5 0-21.3 35.8-38.53 80-38.53 44.18 0 80 17.23 80 38.5z" stroke="#000" fill="#fcce14"/><use xlink:href="#B" transform="matrix(1,0,0,1,2587.4360516516936,1191.4933865052733) translate(23.525 27.1)"/><path d="M3062.85 998.43l-338.5 215.9M3062.84 998.43l2.96-1.88" stroke="#000" fill="none"/><path d="M2724.62 1214.73l-.7.45.02-.57v-.16l-.02-.4.2-.1zM2549.2 1111.17l-.17.93-.98-.18.17-.93zm-4.9-.9l-.16.93-1.96-.36.17-.94zm-5.87-1.1l-.17.95-1.96-.36.18-.94zm-5.87-1.07l-.17.93-1.97-.36.17-.93zm-5.87-1.08l-.18.93-1.96-.36.17-.94zm-5.88-1.1l-.18.95-1.95-.36.16-.93zm-5.88-1.07l-.17.93-1.96-.36.2-.93zm-5.87-1.08l-.17.93-1.96-.36.17-.93zm-5.87-1.1l-.17.95-1.96-.36.17-.94zm-5.87-1.07l-.18.94-1.95-.37.17-.93zm-5.88-1.08l-.17.93-1.96-.36.18-.94zm-5.87-1.08l-.17.93-1.95-.36.17-.92zm-5.87-1.1l-.16.95-1.96-.37.17-.94zm-5.86-1.07l-.18.93-1.95-.36.18-.93zm-5.88-1.08l-.17.92-1.97-.36.18-.93zm-5.87-1.1l-.18.94-1.96-.36.17-.94zm-5.88-1.08l-.17.94-1.96-.37.16-.94zm-5.87-1.08l-.18.93-1.95-.36.17-.92zm-5.88-1.08l-.17.93-1.96-.37.18-.94zm-5.87-1.1l-.17.95-1.96-.35.17-.94zm-5.87-1.07l-.17.92-1.96-.36.17-.93zm-5.87-1.1l-.18.94-1.95-.36.17-.93zm-5.88-1.07l-.17.93-1.95-.36.18-.94zm-5.87-1.1l-.16.95-1.96-.37.17-.92zm-5.86-1.07l-.17.93-1.96-.37.18-.93zm-129.2-23.82l-.17.93-1.96-.36.18-.92zm-5.87-1.1l-.17.95-1.96-.37.17-.94zm-5.87-1.07l-.18.94-1.95-.36.17-.93zm-5.88-1.08l-.17.92-1.95-.36.17-.93zm-5.87-1.1l-.17.94-1.96-.36.17-.93zm-5.87-1.08l-.17.94-1.95-.36.17-.94zm-5.87-1.08l-.16.93-1.96-.36.17-.92zm-5.87-1.08l-.17.93-1.96-.37.18-.93zm-5.87-1.1l-.17.95-1.97-.35.18-.94zm-5.87-1.07l-.18.93-1.96-.37.17-.93zm-5.88-1.1l-.18.94-1.95-.36.16-.93zm-5.88-1.07l-.17.93-1.95-.36.17-.93zm-5.87-1.1l-.17.95-1.96-.36.17-.94zm-5.87-1.07l-.17.93-1.96-.37.17-.93zm-5.87-1.08l-.17.93-1.96-.35.17-.93zm-5.88-1.1l-.17.95-1.96-.36.18-.94zm-5.87-1.07l-.17.95-1.95-.37.17-.93zm-5.87-1.07l-.16.93-1.96-.36.17-.93zm-5.86-1.08l-.18.93-1.95-.36.18-.93zm-5.88-1.1l-.17.95-1.97-.36.18-.94zm-5.87-1.07l-.18.93-1.96-.35.17-.93zm-5.88-1.08l-.17.93-1.96-.36.16-.93zm-5.87-1.1l-.18.95-1.95-.36.17-.95zm-5.88-1.07l-.17.94-1.96-.37.18-.93zm-5.87-1.08l-.17.93-1.96-.36.17-.93zm-5.87-1.08l-.17.93-1.96-.36.17-.93zm-5.87-1.1l-.18.95-1.95-.36.17-.94zm-5.88-1.07l-.17.93-.97-.18.18-.93z" stroke="#000" stroke-width=".05"/><path d="M2120.52 1032.12l-.17.94-.44-.08.03-.48v-.17l-.02-.32z"/><path stroke="#000" stroke-width=".05"/><path d="M2563.64 1114.3l-14.87 1.98 1.68-9.1z"/><path d="M2565.15 1114.6l-16.97 2.24 1.92-10.4zm-15.8 1.13l12.77-1.7-11.32-6.13z" stroke="#000" stroke-width=".05"/><use xlink:href="#q" transform="matrix(1,0,0,1,2280.9171621966957,1060.0840582736575) translate(0.005000000000002558 17.955555555555552)"/><path d="M2547.35 1208.14l-.03.95-1-.04.03-.95zm-5.02-.17l-.03.95-2.02-.07.04-.95zm-6.03-.2l-.04.94-2-.06.02-.95zm-6.04-.22l-.03.95-2-.07.02-.95zm-6.03-.2l-.03.94-2-.08.02-.95zm-6.03-.22l-.03.95-2-.07.02-.94zm-6.03-.2l-.03.94-2-.07.02-.95zm-6.03-.22l-.03.96-2-.07.03-.96zm-6.03-.2l-.03.95-2-.07.03-.95zm-6.03-.2l-.03.94-2-.07.02-.94zm-6.03-.2l-.03.94-2-.07.03-.95zm-6.03-.22l-.02.95-2-.07.02-.95zm-6.02-.2l-.03.94-2-.07.02-.95zm-6.03-.22l-.03.95-2-.06.02-.95zm-6.03-.2l-.04.94-2-.07.03-.95zm-6.03-.22l-.05.95-2-.08.03-.95zm-6.05-.2l-.03.94-2-.07.02-.94zm-6.03-.22l-.03.95-2.02-.07.03-.95zm-6.03-.2l-.04.94-2-.07.02-.96zm-6.04-.22l-.03.95-2-.07.02-.95zm-6.03-.2l-.04.94-2.02-.07.04-.94zm-6.03-.2l-.04.93-2-.07.03-.94zm-6.04-.22l-.03.95-2-.07.02-.95zm-6.03-.2l-.03.94-2-.07.02-.95zm-6.03-.22l-.03.95-2-.06.02-.95zm-6.03-.2l-.03.94-2-.07.02-.95zm-127.12-4.42v.95l-1.6-.06.05-.95zm-5.58-.2l-.03.96-2-.07.02-.95zm-6.03-.2l-.03.95-2-.08.03-.95zm-6.03-.2l-.02.94-2-.07.02-.94zm-6.02-.22l-.03.95-2-.07.02-.95zm-6.03-.2l-.03.94-2-.07.02-.96zm-6.03-.22l-.04.95-2-.07.03-.95zm-6.03-.2l-.05.94-2-.07.02-.95zm-6.05-.22l-.03.95-2-.07.02-.95zm-6.03-.2l-.03.94-2.02-.06.03-.95zm-6.03-.2l-.04.93-2-.06.02-.94zm-6.04-.22l-.03.95-2.02-.06.05-.95zm-6.03-.2l-.04.94-2.02-.07.04-.95zm-6.04-.22l-.04.95-2-.08.03-.95zm-6.04-.2l-.03.94-2-.07.02-.94zm-6.03-.22l-.03.95-2-.07.02-.95zm-6.03-.2l-.03.94-2-.07.02-.96zm-6.03-.22l-.03.95-2.02-.07.04-.95zm-6.03-.2l-.04.94-2-.07.03-.95zm-6.03-.22l-.03.95-2-.07.03-.95zm-6.03-.2l-.03.94-2-.07.02-.94zm-6.03-.22l-.03.95-2-.05.03-.95zm-6.03-.2l-.02.94-2-.06.02-.95zm-6.02-.2l-.03.94-2-.07.02-.95zm-6.03-.22l-.04.95-2-.08.04-.95zm-6.03-.2l-.04.94-2-.07.03-.94zm-6.03-.22l-.05.95-2-.07.02-.95zm-6.05-.2l-.03.94-2-.07.02-.96zm-6.03-.22l-.03.95-1.02-.03.04-.95z" stroke="#000" stroke-width=".05"/><path d="M2101.03 1192.67l-.03.95-.5-.02v-.94z"/><path stroke="#000" stroke-width=".05"/><path d="M2562.1 1209.13l-14.42 4.14.32-9.27z"/><path d="M2563.63 1209.18l-16.45 4.72.37-10.57zm-15.46 3.45l12.4-3.55-12.12-4.4z" stroke="#000" stroke-width=".05"/><use xlink:href="#q" transform="matrix(1,0,0,1,2270.4458670965723,1187.6877304633972) translate(0.005000000000002558 17.955555555555552)"/><path d="M2721.14 1627.36c0 21.27-35.8 38.5-80 38.5-44.18 0-80-17.23-80-38.5 0-21.28 35.82-38.52 80-38.52 44.2 0 80 17.24 80 38.52z" stroke="#000" fill="#fcce14"/><use xlink:href="#C" transform="matrix(1,0,0,1,2585.1453505505647,1604.243906900794) translate(4.549999999999997 27.1)"/><path d="M3063.04 998.6l-341.2 626.9M3063.03 998.6l1.68-3.08" stroke="#000" fill="none"/><path d="M2722.26 1625.72l-.63 1.14-.03-.88-.07-.66zM2560.47 1626.7l-.5.8-1.28-.78.5-.8zm-3-1.83l-.48.82-2.57-1.57.5-.8zm-4.25-2.6l-.5.82-2.55-1.56.5-.82zm-4.26-2.58l-.5.8-2.55-1.56.5-.8zm-4.26-2.6l-.5.8-2.55-1.55.5-.8zm-4.26-2.6l-.5.8-2.55-1.55.5-.8zm-4.26-2.6l-.5.82-2.55-1.56.5-.8zm-4.26-2.6l-.5.82-2.55-1.55.5-.82zm-4.26-2.58l-.5.8-2.55-1.55.5-.8zm-4.26-2.6l-.5.8-2.55-1.54.5-.8zm-4.26-2.6l-.5.82-2.55-1.56.48-.8zm-4.26-2.6l-.5.83-2.55-1.56.5-.82zm-4.26-2.58l-.5.8-2.55-1.54.5-.82zm-4.26-2.6l-.5.82-2.55-1.56.5-.8zm-4.26-2.6l-.5.82-2.55-1.55.5-.8zm-4.26-2.58l-.5.8-2.55-1.55.48-.8zm-4.26-2.6l-.5.82-2.55-1.56.5-.8zm-4.26-2.6l-.5.82-2.55-1.55.5-.82zm-4.26-2.58l-.5.8-2.55-1.55.5-.8zm-4.26-2.6l-.5.8-2.55-1.54.5-.8zm-4.26-2.6l-.5.82-2.55-1.56.48-.8zm-4.26-2.58l-.5.8-2.56-1.55.5-.8zm-4.27-2.6l-.48.8-2.56-1.54.5-.82zm-4.25-2.6l-.5.82-2.55-1.56.5-.8zm-4.26-2.6l-.5.83-2.56-1.56.5-.8zm-4.27-2.58l-.5.8-2.55-1.55.5-.8zm-4.26-2.6l-.5.82-2.55-1.56.5-.8zm-4.26-2.6l-.48.82-2.56-1.55.5-.82zm-4.25-2.58l-.5.8-2.55-1.55.5-.82zm-4.26-2.6l-.5.82-2.56-1.56.5-.8zm-4.27-2.6l-.5.82-2.55-1.55.5-.8zm-4.26-2.58l-.5.8-2.55-1.55.5-.8zm-4.26-2.6l-.48.8-2.56-1.54.5-.8zm-4.25-2.6l-.5.82-2.55-1.56.5-.8zm-4.26-2.58l-.5.8-2.56-1.55.5-.8zm-4.27-2.6l-.5.8-2.55-1.54.5-.82zm-4.26-2.6l-.5.82-2.55-1.56.5-.8zm-4.26-2.6l-.5.83-2.54-1.55.5-.8zm-4.25-2.58l-.5.8-2.55-1.55.5-.8zm-4.26-2.6l-.5.82-2.56-1.56.5-.8zm-4.27-2.6l-.5.82-2.55-1.55.5-.82zm-4.26-2.58l-.5.8-2.55-1.55.5-.8zm-4.26-2.6l-.5.82-2.54-1.56.5-.8zm-4.25-2.6l-.5.82-2.55-1.56.5-.8zm-4.26-2.58l-.5.8-2.56-1.55.5-.82zm-4.27-2.6l-.5.8-2.56-1.54.5-.8zm-4.27-2.6l-.5.82-2.55-1.56.5-.8zm-4.26-2.6l-.5.83-2.55-1.56.5-.8zm-4.26-2.58l-.5.8-2.55-1.55.5-.8zm-4.26-2.6l-.5.82-2.55-1.56.5-.8zm-4.26-2.6l-.5.82-2.55-1.55.5-.8zm-4.26-2.58l-.5.8-2.55-1.55.5-.8zm-4.26-2.6l-.5.82-2.55-1.56.5-.8zm-4.26-2.6l-.5.82-2.55-1.55.5-.82zm-4.26-2.58l-.5.8-2.55-1.55.5-.8zm-4.26-2.6l-.5.8-2.55-1.54.5-.8zm-4.26-2.6l-.5.82-2.55-1.56.5-.8zm-4.26-2.6l-.5.83-2.55-1.56.5-.8zm-4.26-2.58l-.5.8-2.55-1.54.48-.82zm-4.26-2.6l-.5.82-2.55-1.56.5-.8zm-4.26-2.6l-.5.83-2.55-1.56.5-.82zm-4.26-2.58l-.5.8-2.55-1.55.5-.82zm-4.26-2.6l-.5.82-2.55-1.56.5-.8zm-4.26-2.6l-.5.82-2.55-1.55.27-.46h.77zm-46.87-28.52l-.23.38h-.96l-1.86-1.13.5-.8zm-4.26-2.6l-.48.82-2.56-1.56.5-.8zm-4.25-2.6l-.5.82-2.55-1.55.5-.83zm-4.26-2.58l-.5.8-2.56-1.55.5-.82zm-4.27-2.6l-.5.8-2.55-1.54.5-.8zm-4.26-2.6l-.5.82-2.55-1.56.5-.8zm-4.26-2.6l-.48.83-2.56-1.56.5-.8zm-4.25-2.58l-.5.8-2.55-1.54.5-.8zm-4.26-2.6l-.5.82-1.9-1.16h1.83zm-8.53-5.18l-.5.8-2.55-1.55.5-.8zm-4.26-2.6l-.48.82-2.56-1.56.5-.8zm-4.25-2.6l-.5.82-2.55-1.55.5-.82zm-4.26-2.58l-.5.8-2.56-1.55.5-.8zm-4.27-2.6l-.5.82-2.55-1.56.5-.8zm-4.26-2.6l-.5.82-2.55-1.56.5-.8zm-4.26-2.58l-.5.8-2.54-1.55.5-.8zm-4.25-2.6l-.5.8-2.55-1.54.5-.8zm-4.26-2.6l-.5.82-2.56-1.56.5-.8zm-4.27-2.6l-.5.83-2.55-1.56.5-.82zm-4.26-2.58l-.5.8-2.55-1.54.5-.82zm-4.26-2.6l-.5.82-2.54-1.56.5-.8zm-4.25-2.6l-.5.82-2.55-1.55.5-.8zm-4.26-2.58l-.5.8-2.57-1.55.5-.8zm-4.28-2.6l-.5.82-2.55-1.56.5-.8zm-4.26-2.6l-.5.82-2.55-1.55.5-.82zm-4.26-2.58l-.5.8-2.55-1.55.5-.8zm-4.26-2.6l-.5.82-2.55-1.56.5-.8zm-4.26-2.6l-.5.82-2.55-1.56.5-.8zm-4.26-2.6l-.5.83-2.55-1.55.5-.8zm-4.26-2.58l-.5.8-2.55-1.54.5-.82zm-4.26-2.6l-.5.82-1.27-.78.5-.8z" stroke="#000" stroke-width=".05"/><path d="M2116.35 1348.07l-7.8 12.8-7.2-13.15z"/><path d="M2117.18 1347.6l-8.65 14.23-8-14.6zm-8.6 12.33l6.94-11.4-13.35-.32z" stroke="#000" stroke-width=".05"/><path d="M2560.66 1626.8v1.12l-.7-.43.5-.82z"/><path stroke="#000" stroke-width=".05"/><use xlink:href="#w" transform="matrix(1,0,0,1,2202.8486019436855,1435.9035600368136) translate(0.0049999999999954525 17.955555555555552)"/><path d="M2556.76 685.1l-.1.96-1-.1.1-.95zm-4.98-.5l-.1.94-1.98-.2.1-.95zm-5.97-.62l-.08.95-2-.2.1-.95zm-5.96-.6l-.1.93-1.98-.2.1-.94zm-5.97-.63l-.1.95-1.98-.2.1-.96zm-5.97-.62l-.1.95-1.98-.2.1-.95zm-5.97-.6l-.1.93-1.98-.2.1-.95zm-5.97-.63l-.1.95-1.98-.2.1-.95zm-5.97-.6l-.1.93-2-.2.1-.95zm-5.98-.63l-.1.95-1.98-.2.1-.95zm-5.97-.62l-.1.95-1.98-.2.1-.95zm-5.97-.6l-.1.93-2-.2.1-.95zm-5.97-.63l-.1.95-1.97-.2.1-.95zm-5.96-.6l-.1.93-2-.2.1-.95zm-5.97-.63l-.1.94-2-.2.1-.96zm-5.97-.63l-.1.95-2-.2.1-.95zm-5.97-.6l-.1.93-2-.2.1-.95zm-5.97-.63l-.1.95-2-.22.1-.94zm-5.97-.6l-.1.93-2-.2.1-.95zm-5.98-.63l-.1.96-2-.2.1-.95zm-5.97-.6l-.1.94-2-.2.1-.95zm-5.97-.62l-.1.94-2-.2.1-.95zm-5.97-.62l-.1.95-1.98-.2.1-.94zm-5.96-.6l-.1.93-2-.2.1-.96zm-5.97-.63l-.1.95-2-.2.1-.95zm-5.97-.6l-.1.93-2-.2.1-.95zm-5.97-.63l-.1.94-2-.2.1-.95zm-5.97-.62l-.1.95-2-.2.1-.95zm-133.17-13.73v.95l-.27-.03.1-.94zm-4.16-.43l-.1.94-1.98-.2.1-.95zm-5.97-.62l-.1.95-1.98-.2.08-.95zm-5.97-.6l-.1.93-1.98-.2.1-.95zm-5.97-.63l-.1.94-2-.2.1-.93zm-5.97-.62l-.1.95-2-.2.1-.95zm-5.97-.6l-.1.93-2-.2.1-.95zm-5.98-.63l-.1.95-2-.2.1-.95zm-5.97-.6l-.1.93-2-.2.1-.95zm-5.97-.63l-.1.94-2-.2.1-.96zm-5.97-.63l-.1.95-1.98-.2.1-.95zm-5.96-.6l-.1.93-2-.2.1-.95zm-5.97-.63l-.1.95-2-.22.1-.94zm-5.97-.6l-.1.93-2-.2.1-.95zm-5.97-.63l-.1.96-2-.2.1-.95zm-5.97-.6l-.1.94-2-.2.1-.95zm-5.97-.62l-.1.94-2-.2.1-.95zm-5.98-.62l-.1.95-2-.2.1-.94zm-5.97-.6l-.1.93-2-.2.1-.96zm-5.97-.63l-.1.95-2-.2.1-.95zm-5.97-.6l-.1.93-1.98-.2.1-.95zm-5.96-.63l-.1.94-2-.2.1-.95zm-5.97-.62l-.1.95-2-.2.1-.95zm-5.97-.6l-.1.93-2-.2.1-.94zm-5.97-.63l-.1.95-2-.2.1-.95zm-5.97-.6l-.1.93-1-.1.1-.95z" stroke="#000" stroke-width=".05"/><path d="M2557.22 685.16v.94l-.57-.05.1-.94z"/><path stroke="#000" stroke-width=".05"/><path d="M2113.65 647.4l-12.16-8.78 13.7-6.13z"/><path d="M2114.03 648.28l-13.48-9.76 15.2-6.8zm-11.6-9.56l10.83 7.83 1.37-13.3z" stroke="#000" stroke-width=".05"/><use xlink:href="#w" transform="matrix(1,0,0,1,2263.391686487608,648.6101284220654) translate(0.0049999999999954525 17.955555555555552)"/><path d="M2717.7 685.63c0 21.28-35.8 38.52-80 38.52-44.17 0-80-17.24-80-38.5 0-21.3 35.83-38.53 80-38.53 44.2 0 80 17.24 80 38.5z" stroke="#000" fill="#fcce14"/><use xlink:href="#D" transform="matrix(1,0,0,1,2581.709298898871,662.5232665497899) translate(25.049999999999997 27.1)"/><path d="M3062.8 608.24l-344.1 77.28M3062.77 608.24l3.43-.77" stroke="#000" fill="none"/><path d="M2718.8 686l-.6.13v-.98l.4-.1z" stroke="#000" stroke-width=".05"/><path d="M2100 764.54c0 21.28-35.82 38.52-80 38.52s-80-17.24-80-38.52c0-21.27 35.82-38.52 80-38.52s80 17.25 80 38.52z" stroke="#000" fill="#fcce14"/><use xlink:href="#E" transform="matrix(1,0,0,1,1964,741.4298411592174) translate(6.099999999999994 27.1)"/><path d="M2100 898.52c0 21.27-35.82 38.52-80 38.52s-80-17.25-80-38.52c0-21.27 35.82-38.52 80-38.52s80 17.25 80 38.52z" stroke="#000" fill="#fcce14"/><use xlink:href="#F" transform="matrix(1,0,0,1,1964,875.4075809069186) translate(9.474999999999994 27.1)"/><path d="M2642.77 552.87h-.95v-1.6h.95zm0-3.72h-.95v-3.2h.95zm0-5.3h-.95v-3.2h.95zm0-5.32h-.95v-3.2h.95zm0-5.32h-.95v-3.17h.95zm2.3-34.18h-.96v-3.2h.96zm0-5.32h-.96v-1.6h.96z" stroke="#000" stroke-width=".05"/><path d="M2649.22 491.6h-9.27l4.63-14.26z"/><path d="M2649.87 492.08h-10.58l5.28-16.28zm-9.27-.95h7.96l-3.98-12.26z" stroke="#000" stroke-width=".05"/><path d="M2642.77 553.38h-.95v-.53h.95z"/><path stroke="#000" stroke-width=".05"/><use xlink:href="#w" transform="matrix(1,0,0,1,2577.9730886887887,501.075344394483) translate(0.0049999999999954525 17.955555555555552)"/><path d="M1482.23 37.16l154.75 291.5c2.44-1.3 5.46-.37 6.76 2.07 1.3 2.44.37 5.46-2.07 6.76l20.72 39.03c2.43-1.3 5.46-.37 6.75 2.07 1.3 2.44.37 5.47-2.07 6.76l44.6 84c2.44-1.28 5.47-.36 6.76 2.08 1.3 2.44.37 5.47-2.07 6.76l56.84 107.08c2.45-1.3 5.48-.37 6.77 2.07 1.3 2.44.37 5.47-2.07 6.76l161.37 303.98M1482.24 37.17l-1.65-3.1" stroke="#000" fill="none"/><path d="M1939.5 898.5v.2l.04.9-.7-1.3.68-.37zM2645.06 359h-.95v-2.86h.96zm0-4.75h-.95v-2.85h.96zm0-4.75h-.95v-1.43h.96z" stroke="#000" stroke-width=".05"/><path d="M2644.58 396.06l-3.24-9.97h6.48z"/><path d="M2644.58 397.6l-3.74-11.5h1l2.74 8.42 2.74-8.43h1z" stroke="#000" stroke-width=".05"/><path d="M2645.06 348.1h-.95v-.5l.96-.04z"/><path stroke="#000" stroke-width=".05"/><use xlink:href="#w" transform="matrix(1,0,0,1,2579.1184392393534,359.16100705731895) translate(0.0049999999999954525 17.955555555555552)"/><path d="M1482.43 502.52l233.44 133.83c1.38-2.4 4.43-3.23 6.83-1.86 2.4 1.37 3.22 4.42 1.85 6.82l108.38 62.13c1.37-2.4 4.42-3.23 6.82-1.86 2.4 1.37 3.22 4.42 1.85 6.82l97.47 55.87M1482.44 502.53l-3.04-1.75" stroke="#000" fill="none"/><path d="M1939.52 764l-.02.53v.18l.02.4-.7-.4.47-.83z" stroke="#000" stroke-width=".05"/><path d="M2718.86 988.55c0 21.27-35.82 38.52-80 38.52-44.2 0-80-17.25-80-38.52 0-21.27 35.8-38.52 80-38.52 44.18 0 80 17.25 80 38.52z" stroke="#000" fill="#fcce14"/><use xlink:href="#G" transform="matrix(1,0,0,1,2582.854649449436,965.4366252314543) translate(16.5 27.1)"/><path d="M2564.8 821.96l-.13.94-1-.12.13-.94zm-4.94-.62l-.12.95-1.97-.26.1-.94zm-5.92-.74l-.12.95-1.97-.25.12-.94zm-5.92-.73l-.12.94-1.97-.24.12-.94zm-5.92-.74l-.12.94-1.97-.25.13-.94zm-5.92-.74l-.12.93-1.97-.24.1-.96zm-5.92-.75l-.12.95-1.97-.25.12-.94zm-5.92-.74l-.12.96-1.97-.25.12-.93zm-5.92-.72l-.1.94-2-.25.13-.94zm-5.92-.74l-.1.94-2-.25.13-.94zm-5.9-.74l-.13.94-1.98-.24.1-.95zm-5.93-.74l-.12.94-1.98-.24.12-.94zm-5.92-.74l-.12.95-1.97-.25.1-.94zm-5.92-.73l-.12.93-1.96-.25.12-.94zm-5.92-.75l-.1.94-1.98-.26.1-.94zm-5.9-.74l-.13.95-1.97-.24.12-.94zm-5.93-.73l-.12.94-1.97-.23.12-.95zm-5.92-.74l-.12.95-1.97-.25.12-.94zm-5.92-.74l-.12.94-1.96-.25.12-.95zm-5.92-.74l-.1.94-1.98-.25.12-.94zm-5.9-.74l-.12.94-1.98-.24.12-.95zm-5.93-.74l-.1.94-2-.24.13-.94zm-5.9-.74l-.13.95-1.97-.26.1-.94zm-5.93-.74l-.12.95-1.97-.25.1-.94zm-5.92-.73l-.12.94-1.97-.24.1-.94zm-5.92-.74l-.12.94-1.97-.25.13-.94zm-5.92-.74l-.12.93-1.97-.24.1-.96zm-5.92-.75l-.12.95-1.97-.25.12-.94zm-5.92-.74l-.12.96-1.6-.2v-.96zm-136.14-16.96l-.12.94-1.97-.25.13-.94zm-5.92-.74l-.12.94-1.97-.24.1-.95zm-5.92-.74l-.1.94-2-.24.13-.94zm-5.9-.74l-.13.95-1.98-.25.12-.94zm-5.93-.73l-.12.93-1.96-.25.1-.94zm-5.92-.75l-.1.94-1.98-.26.1-.94zm-5.9-.74l-.13.95-1.97-.24.1-.94zm-5.93-.73l-.12.94-1.97-.23.1-.94zm-5.92-.74l-.12.95-1.97-.25.12-.94zm-5.92-.74l-.12.94-1.96-.25.12-.95zm-5.92-.74l-.1.94-1.98-.25.12-.94zm-5.9-.74l-.13.94-1.97-.24.12-.95zm-5.93-.74l-.1.94-2-.24.13-.94zm-5.92-.74l-.1.95-2-.26.13-.94zm-5.92-.74l-.1.95-2-.25.13-.94zm-5.92-.73l-.1.94-1.97-.24.1-.94zm-5.9-.74l-.12.94-1.97-.25.12-.94zm-5.92-.74l-.12.93-1.97-.24.1-.96zm-5.92-.75l-.12.95-1.97-.25.12-.94zm-5.92-.74l-.12.96-1.97-.25.12-.93zm-5.92-.72l-.12.94-1.97-.25.12-.94zm-5.92-.74l-.12.94-1.97-.25.13-.94zm-5.92-.74l-.12.94-1.97-.24.1-.95zm-5.92-.74l-.12.94-1.97-.24.12-.94zm-5.92-.74l-.1.95-2-.25.13-.94zm-5.92-.73l-.1.93-1-.12.12-.94z" stroke="#000" stroke-width=".05"/><path d="M2113.45 773.7l-11.96-9.04 13.8-5.83z"/><path d="M2113.82 774.6l-13.27-10.05 15.33-6.48zm-11.4-9.82l10.66 8.06 1.66-13.25z" stroke="#000" stroke-width=".05"/><path d="M2565.24 822v.96l-.58-.06.12-.94z"/><path stroke="#000" stroke-width=".05"/><use xlink:href="#w" transform="matrix(1,0,0,1,2267.400413414584,780.0495572521373) translate(0.0049999999999954525 17.955555555555552)"/><path d="M2544.23 985.3l-.18.92-1-.2.2-.93zm-4.93-.98l-.18.93-1.97-.4.18-.92zm-5.9-1.16l-.2.93-1.96-.4.2-.93zm-5.9-1.17l-.2.93-1.97-.4.2-.92zm-5.92-1.17l-.18.93-1.97-.38.18-.93zm-5.9-1.16l-.2.93-1.96-.38.18-.94zm-5.92-1.16l-.18.94-1.97-.4.2-.92zm-5.9-1.15l-.2.93-1.96-.4.18-.92zm-5.92-1.17l-.18.94-1.97-.4.17-.92zm-5.9-1.16l-.2.94-1.96-.4.2-.92zm-5.9-1.16l-.2.93-1.97-.4.2-.93zm-5.92-1.16l-.18.93-1.97-.38.18-.94zm-5.9-1.16l-.2.93-1.96-.4.18-.92zm-5.92-1.16l-.18.93-1.97-.38.18-.93zm-5.9-1.17l-.2.95-1.96-.4.18-.92zm-5.92-1.15l-.18.94-1.97-.4.18-.94zm-5.9-1.16l-.2.92-1.96-.38.2-.94zm-5.9-1.17l-.2.93-1.97-.4.2-.92zm-5.92-1.16l-.18.93-1.97-.4.2-.92zm-5.9-1.17l-.2.94-1.96-.4.18-.92zm-5.92-1.16l-.18.93-1.97-.38.17-.94zm-5.9-1.16l-.2.93-1.96-.37.18-.94zm-5.92-1.16l-.18.93-1.97-.38.18-.94zm-5.9-1.16l-.2.93-1.96-.4.18-.93zm-5.9-1.16l-.2.93-1.97-.4.2-.92zm-5.92-1.17l-.2.94-1.96-.4.2-.92zm-135.9-26.72l-.18.94-1.97-.38.18-.93zm-5.9-1.15l-.2.93-1.96-.38.18-.94zm-5.92-1.16l-.18.92-1.97-.4.18-.92zm-5.9-1.17l-.2.93-1.96-.4.18-.92zm-5.9-1.16l-.2.93-1.97-.4.2-.92zm-5.92-1.17l-.2.94-1.96-.4.2-.92zm-5.9-1.16l-.2.93-1.97-.38.18-.95zm-5.92-1.16l-.18.93-1.97-.38.17-.93zm-5.9-1.16l-.2.93-1.96-.4.18-.92zm-5.92-1.16l-.18.93-1.97-.4.18-.93zm-5.9-1.17l-.2.93-1.96-.4.18-.92zm-5.9-1.17l-.2.93-1.97-.38.2-.94zm-5.92-1.16l-.2.93-1.96-.38.2-.94zm-5.9-1.16l-.2.94-1.96-.4.18-.92zm-5.92-1.15l-.18.93-1.97-.4.18-.92zm-5.9-1.17l-.2.94-1.96-.4.18-.92zm-5.92-1.16l-.18.93-1.97-.38.2-.93zm-5.9-1.16l-.2.93-1.96-.4.18-.93zm-5.9-1.16l-.2.93-1.97-.4.18-.92zm-5.92-1.16l-.2.93-1.96-.4.2-.92zm-5.9-1.16l-.2.93-1.97-.38.2-.93zm-5.92-1.17l-.18.95-1.97-.4.18-.92zm-5.9-1.15l-.2.93-1.96-.38.18-.94zm-5.92-1.16l-.18.92-1.97-.38.18-.94zm-5.9-1.17l-.2.93-1.96-.4.18-.92zm-5.92-1.16l-.18.93-1.97-.4.18-.92zm-5.9-1.16l-.2.94-1.96-.4.2-.92zm-5.9-1.16l-.2.93-.98-.2.18-.92z" stroke="#000" stroke-width=".05"/><path d="M2101.1 898.15l-.2.93-.4-.08v-.97z"/><path stroke="#000" stroke-width=".05"/><path d="M2557.37 988.36l-14.2 4.85 2.9-14.7z"/><path d="M2558.3 988.54l-15.75 5.38 3.22-16.33zm-14.5 3.95l12.64-4.33-10.06-8.78z" stroke="#000" stroke-width=".05"/><use xlink:href="#w" transform="matrix(1,0,0,1,2263.9643617628903,930.0668077628975) translate(0.0049999999999954525 17.955555555555552)"/><path d="M3062.94 608.5L2719.7 988.18M3062.93 608.5l2.36-2.6" stroke="#000" fill="none"/><path d="M2720.05 988.5l-.72.78.03-.73v-.17l-.03-.52h.02z" stroke="#000" stroke-width=".05"/><path d="M2725.73 822.5c0 21.26-35.82 38.5-80 38.5-44.2 0-80-17.24-80-38.5 0-21.28 35.8-38.53 80-38.53 44.18 0 80 17.25 80 38.52z" stroke="#000" fill="#fcce14"/><use xlink:href="#H" transform="matrix(1,0,0,1,2589.7267527528224,799.379863957635) translate(11.549999999999997 27.1)"/><path d="M3062.85 608.4l-336.2 213.82M3062.84 608.4l2.97-1.88" stroke="#000" fill="none"/><path d="M2726.9 822.62l-.7.45.03-.57v-.18l-.02-.38.2-.13z" stroke="#000" stroke-width=".05"/><defs><path d="M63-220v92h138v28H63V0H30v-248h175v28H63" id="I"/><path d="M24 0v-261h32V0H24" id="J"/><path d="M24-231v-30h32v30H24zM24 0v-190h32V0H24" id="K"/><path d="M115-194c55 1 70 41 70 98S169 2 115 4C84 4 66-9 55-30l1 105H24l-1-265h31l2 30c10-21 28-34 59-34zm-8 174c40 0 45-34 45-75s-6-73-45-74c-42 0-51 32-51 76 0 43 10 73 51 73" id="L"/><g id="a"><use transform="matrix(0.06234567901234567,0,0,0.06234567901234567,0,0)" xlink:href="#I"/><use transform="matrix(0.06234567901234567,0,0,0.06234567901234567,13.653703703703702,0)" xlink:href="#J"/><use transform="matrix(0.06234567901234567,0,0,0.06234567901234567,18.57901234567901,0)" xlink:href="#K"/><use transform="matrix(0.06234567901234567,0,0,0.06234567901234567,23.504320987654317,0)" xlink:href="#L"/></g><path d="M59-47c-2 24 18 29 38 22v24C64 9 27 4 27-40v-127H5v-23h24l9-43h21v43h35v23H59v120" id="M"/><g id="b"><use transform="matrix(0.06234567901234567,0,0,0.06234567901234567,0,0)" xlink:href="#I"/><use transform="matrix(0.06234567901234567,0,0,0.06234567901234567,13.653703703703702,0)" xlink:href="#K"/><use transform="matrix(0.06234567901234567,0,0,0.06234567901234567,18.57901234567901,0)" xlink:href="#M"/></g><path d="M212-179c-10-28-35-45-73-45-59 0-87 40-87 99 0 60 29 101 89 101 43 0 62-24 78-52l27 14C228-24 195 4 139 4 59 4 22-46 18-125c-6-104 99-153 187-111 19 9 31 26 39 46" id="N"/><path d="M84 4C-5 8 30-112 23-190h32v120c0 31 7 50 39 49 72-2 45-101 50-169h31l1 190h-30c-1-10 1-25-2-33-11 22-28 36-60 37" id="O"/><path d="M135-143c-3-34-86-38-87 0 15 53 115 12 119 90S17 21 10-45l28-5c4 36 97 45 98 0-10-56-113-15-118-90-4-57 82-63 122-42 12 7 21 19 24 35" id="P"/><path d="M100-194c62-1 85 37 85 99 1 63-27 99-86 99S16-35 15-95c0-66 28-99 85-99zM99-20c44 1 53-31 53-75 0-43-8-75-51-75s-53 32-53 75 10 74 51 75" id="Q"/><path d="M210-169c-67 3-38 105-44 169h-31v-121c0-29-5-50-35-48C34-165 62-65 56 0H25l-1-190h30c1 10-1 24 2 32 10-44 99-50 107 0 11-21 27-35 58-36 85-2 47 119 55 194h-31v-121c0-29-5-49-35-48" id="R"/><path d="M100-194c63 0 86 42 84 106H49c0 40 14 67 53 68 26 1 43-12 49-29l28 8c-11 28-37 45-77 45C44 4 14-33 15-96c1-61 26-98 85-98zm52 81c6-60-76-77-97-28-3 7-6 17-6 28h103" id="S"/><path d="M114-163C36-179 61-72 57 0H25l-1-190h30c1 12-1 29 2 39 6-27 23-49 58-41v29" id="T"/><g id="c"><use transform="matrix(0.06234567901234567,0,0,0.06234567901234567,0,0)" xlink:href="#I"/><use transform="matrix(0.06234567901234567,0,0,0.06234567901234567,13.653703703703702,0)" xlink:href="#J"/><use transform="matrix(0.06234567901234567,0,0,0.06234567901234567,18.57901234567901,0)" xlink:href="#K"/><use transform="matrix(0.06234567901234567,0,0,0.06234567901234567,23.504320987654317,0)" xlink:href="#L"/><use transform="matrix(0.06234567901234567,0,0,0.06234567901234567,35.97345679012345,0)" xlink:href="#I"/><use transform="matrix(0.06234567901234567,0,0,0.06234567901234567,49.62716049382715,0)" xlink:href="#K"/><use transform="matrix(0.06234567901234567,0,0,0.06234567901234567,54.552469135802454,0)" xlink:href="#M"/><use transform="matrix(0.06234567901234567,0,0,0.06234567901234567,60.787037037037024,0)" xlink:href="#N"/><use transform="matrix(0.06234567901234567,0,0,0.06234567901234567,76.93456790123454,0)" xlink:href="#O"/><use transform="matrix(0.06234567901234567,0,0,0.06234567901234567,89.40370370370368,0)" xlink:href="#P"/><use transform="matrix(0.06234567901234567,0,0,0.06234567901234567,100.6259259259259,0)" xlink:href="#M"/><use transform="matrix(0.06234567901234567,0,0,0.06234567901234567,106.86049382716047,0)" xlink:href="#Q"/><use transform="matrix(0.06234567901234567,0,0,0.06234567901234567,119.32962962962961,0)" xlink:href="#R"/><use transform="matrix(0.06234567901234567,0,0,0.06234567901234567,137.97098765432096,0)" xlink:href="#S"/><use transform="matrix(0.06234567901234567,0,0,0.06234567901234567,150.4401234567901,0)" xlink:href="#T"/></g><path d="M143 4C61 4 22-44 18-125c-5-107 100-154 193-111 17 8 29 25 37 43l-32 9c-13-25-37-40-76-40-61 0-88 39-88 99 0 61 29 100 91 101 35 0 62-11 79-27v-45h-74v-28h105v86C228-13 192 4 143 4" id="U"/><path d="M179-190L93 31C79 59 56 82 12 73V49c39 6 53-20 64-50L1-190h34L92-34l54-156h33" id="V"/><path d="M140-251c81 0 123 46 123 126C263-46 219 4 140 4 59 4 17-45 17-125s42-126 123-126zm0 227c63 0 89-41 89-101s-29-99-89-99c-61 0-89 39-89 99S79-25 140-24" id="W"/><path d="M206 0h-36l-40-164L89 0H53L-1-190h32L70-26l43-164h34l41 164 42-164h31" id="X"/><path d="M117-194c89-4 53 116 60 194h-32v-121c0-31-8-49-39-48C34-167 62-67 57 0H25l-1-190h30c1 10-1 24 2 32 11-22 29-35 61-36" id="Y"/><g id="d"><use transform="matrix(0.06234567901234567,0,0,0.06234567901234567,0,0)" xlink:href="#I"/><use transform="matrix(0.06234567901234567,0,0,0.06234567901234567,13.653703703703702,0)" xlink:href="#J"/><use transform="matrix(0.06234567901234567,0,0,0.06234567901234567,18.57901234567901,0)" xlink:href="#K"/><use transform="matrix(0.06234567901234567,0,0,0.06234567901234567,23.504320987654317,0)" xlink:href="#L"/><use transform="matrix(0.06234567901234567,0,0,0.06234567901234567,35.97345679012345,0)" xlink:href="#I"/><use transform="matrix(0.06234567901234567,0,0,0.06234567901234567,49.62716049382715,0)" xlink:href="#K"/><use transform="matrix(0.06234567901234567,0,0,0.06234567901234567,54.552469135802454,0)" xlink:href="#M"/><use transform="matrix(0.06234567901234567,0,0,0.06234567901234567,60.787037037037024,0)" xlink:href="#U"/><use transform="matrix(0.06234567901234567,0,0,0.06234567901234567,78.24382716049381,0)" xlink:href="#V"/><use transform="matrix(0.06234567901234567,0,0,0.06234567901234567,89.46604938271602,0)" xlink:href="#R"/><use transform="matrix(0.06234567901234567,0,0,0.06234567901234567,108.10740740740738,0)" xlink:href="#W"/><use transform="matrix(0.06234567901234567,0,0,0.06234567901234567,125.56419753086416,0)" xlink:href="#X"/><use transform="matrix(0.06234567901234567,0,0,0.06234567901234567,141.7117283950617,0)" xlink:href="#Y"/><use transform="matrix(0.06234567901234567,0,0,0.06234567901234567,154.18086419753084,0)" xlink:href="#S"/><use transform="matrix(0.06234567901234567,0,0,0.06234567901234567,166.64999999999998,0)" xlink:href="#T"/></g><path d="M205 0l-28-72H64L36 0H1l101-248h38L239 0h-34zm-38-99l-47-123c-12 45-31 82-46 123h93" id="Z"/><path d="M85-194c31 0 48 13 60 33l-1-100h32l1 261h-30c-2-10 0-23-3-31C134-8 116 4 85 4 32 4 16-35 15-94c0-66 23-100 70-100zm9 24c-40 0-46 34-46 75 0 40 6 74 45 74 42 0 51-32 51-76 0-42-9-74-50-73" id="aa"/><g id="e"><use transform="matrix(0.06234567901234567,0,0,0.06234567901234567,0,0)" xlink:href="#I"/><use transform="matrix(0.06234567901234567,0,0,0.06234567901234567,13.653703703703702,0)" xlink:href="#J"/><use transform="matrix(0.06234567901234567,0,0,0.06234567901234567,18.57901234567901,0)" xlink:href="#K"/><use transform="matrix(0.06234567901234567,0,0,0.06234567901234567,23.504320987654317,0)" xlink:href="#L"/><use transform="matrix(0.06234567901234567,0,0,0.06234567901234567,35.97345679012345,0)" xlink:href="#I"/><use transform="matrix(0.06234567901234567,0,0,0.06234567901234567,49.62716049382715,0)" xlink:href="#K"/><use transform="matrix(0.06234567901234567,0,0,0.06234567901234567,54.552469135802454,0)" xlink:href="#M"/><use transform="matrix(0.06234567901234567,0,0,0.06234567901234567,60.787037037037024,0)" xlink:href="#Z"/><use transform="matrix(0.06234567901234567,0,0,0.06234567901234567,75.74999999999999,0)" xlink:href="#aa"/><use transform="matrix(0.06234567901234567,0,0,0.06234567901234567,88.21913580246911,0)" xlink:href="#R"/><use transform="matrix(0.06234567901234567,0,0,0.06234567901234567,106.86049382716047,0)" xlink:href="#K"/><use transform="matrix(0.06234567901234567,0,0,0.06234567901234567,111.78580246913577,0)" xlink:href="#Y"/></g><path d="M177-190C167-65 218 103 67 71c-23-6-38-20-44-43l32-5c15 47 100 32 89-28v-30C133-14 115 1 83 1 29 1 15-40 15-95c0-56 16-97 71-98 29-1 48 16 59 35 1-10 0-23 2-32h30zM94-22c36 0 50-32 50-73 0-42-14-75-50-75-39 0-46 34-46 75s6 73 46 73" id="ab"/><g id="f"><use transform="matrix(0.05,0,0,0.05,0,0)" xlink:href="#J"/><use transform="matrix(0.05,0,0,0.05,3.95,0)" xlink:href="#Q"/><use transform="matrix(0.05,0,0,0.05,13.949999999999998,0)" xlink:href="#ab"/><use transform="matrix(0.05,0,0,0.05,23.95,0)" xlink:href="#K"/><use transform="matrix(0.05,0,0,0.05,27.899999999999995,0)" xlink:href="#Y"/></g><g id="g"><use transform="matrix(0.05,0,0,0.05,0,0)" xlink:href="#T"/><use transform="matrix(0.05,0,0,0.05,5.95,0)" xlink:href="#S"/><use transform="matrix(0.05,0,0,0.05,15.949999999999998,0)" xlink:href="#ab"/><use transform="matrix(0.05,0,0,0.05,25.950000000000003,0)" xlink:href="#K"/><use transform="matrix(0.05,0,0,0.05,29.899999999999995,0)" xlink:href="#P"/><use transform="matrix(0.05,0,0,0.05,38.9,0)" xlink:href="#M"/><use transform="matrix(0.05,0,0,0.05,43.9,0)" xlink:href="#S"/><use transform="matrix(0.05,0,0,0.05,53.900000000000006,0)" xlink:href="#T"/></g><path d="M115-194c53 0 69 39 70 98 0 66-23 100-70 100C84 3 66-7 56-30L54 0H23l1-261h32v101c10-23 28-34 59-34zm-8 174c40 0 45-34 45-75 0-40-5-75-45-74-42 0-51 32-51 76 0 43 10 73 51 73" id="ac"/><path d="M143 0L79-87 56-68V0H24v-261h32v163l83-92h37l-77 82L181 0h-38" id="ad"/><path d="M185-189c-5-48-123-54-124 2 14 75 158 14 163 119 3 78-121 87-175 55-17-10-28-26-33-46l33-7c5 56 141 63 141-1 0-78-155-14-162-118-5-82 145-84 179-34 5 7 8 16 11 25" id="ae"/><g id="h"><use transform="matrix(0.05,0,0,0.05,0,0)" xlink:href="#ac"/><use transform="matrix(0.05,0,0,0.05,10,0)" xlink:href="#Q"/><use transform="matrix(0.05,0,0,0.05,20,0)" xlink:href="#Q"/><use transform="matrix(0.05,0,0,0.05,30,0)" xlink:href="#ad"/><use transform="matrix(0.05,0,0,0.05,39,0)" xlink:href="#ae"/><use transform="matrix(0.05,0,0,0.05,51,0)" xlink:href="#J"/><use transform="matrix(0.05,0,0,0.05,54.95,0)" xlink:href="#Q"/><use transform="matrix(0.05,0,0,0.05,64.95,0)" xlink:href="#M"/></g><path d="M160-131c35 5 61 23 61 61C221 17 115-2 30 0v-248c76 3 177-17 177 60 0 33-19 50-47 57zm-97-11c50-1 110 9 110-42 0-47-63-36-110-37v79zm0 115c55-2 124 14 124-45 0-56-70-42-124-44v89" id="af"/><g id="i"><use transform="matrix(0.05,0,0,0.05,0,0)" xlink:href="#aa"/><use transform="matrix(0.05,0,0,0.05,10,0)" xlink:href="#S"/><use transform="matrix(0.05,0,0,0.05,20,0)" xlink:href="#J"/><use transform="matrix(0.05,0,0,0.05,23.95,0)" xlink:href="#S"/><use transform="matrix(0.05,0,0,0.05,33.95,0)" xlink:href="#M"/><use transform="matrix(0.05,0,0,0.05,38.95,0)" xlink:href="#S"/><use transform="matrix(0.05,0,0,0.05,48.95,0)" xlink:href="#af"/><use transform="matrix(0.05,0,0,0.05,60.95,0)" xlink:href="#Q"/><use transform="matrix(0.05,0,0,0.05,70.95,0)" xlink:href="#Q"/><use transform="matrix(0.05,0,0,0.05,80.95,0)" xlink:href="#ad"/><use transform="matrix(0.05,0,0,0.05,89.95,0)" xlink:href="#K"/><use transform="matrix(0.05,0,0,0.05,93.9,0)" xlink:href="#Y"/><use transform="matrix(0.05,0,0,0.05,103.9,0)" xlink:href="#ab"/></g><path d="M96-169c-40 0-48 33-48 73s9 75 48 75c24 0 41-14 43-38l32 2c-6 37-31 61-74 61-59 0-76-41-82-99-10-93 101-131 147-64 4 7 5 14 7 22l-32 3c-4-21-16-35-41-35" id="ag"/><path d="M106-169C34-169 62-67 57 0H25v-261h32l-1 103c12-21 28-36 61-36 89 0 53 116 60 194h-32v-121c2-32-8-49-39-48" id="ah"/><g id="j"><use transform="matrix(0.05,0,0,0.05,0,0)" xlink:href="#ag"/><use transform="matrix(0.05,0,0,0.05,9,0)" xlink:href="#ah"/><use transform="matrix(0.05,0,0,0.05,19,0)" xlink:href="#S"/><use transform="matrix(0.05,0,0,0.05,29,0)" xlink:href="#ag"/><use transform="matrix(0.05,0,0,0.05,38,0)" xlink:href="#ad"/><use transform="matrix(0.05,0,0,0.05,47,0)" xlink:href="#ae"/><use transform="matrix(0.05,0,0,0.05,59,0)" xlink:href="#J"/><use transform="matrix(0.05,0,0,0.05,62.95,0)" xlink:href="#Q"/><use transform="matrix(0.05,0,0,0.05,72.95,0)" xlink:href="#M"/><use transform="matrix(0.05,0,0,0.05,77.95,0)" xlink:href="#P"/></g><path d="M141-36C126-15 110 5 73 4 37 3 15-17 15-53c-1-64 63-63 125-63 3-35-9-54-41-54-24 1-41 7-42 31l-33-3c5-37 33-52 76-52 45 0 72 20 72 64v82c-1 20 7 32 28 27v20c-31 9-61-2-59-35zM48-53c0 20 12 33 32 33 41-3 63-29 60-74-43 2-92-5-92 41" id="ai"/><g id="k"><use transform="matrix(0.05,0,0,0.05,0,0)" xlink:href="#ai"/><use transform="matrix(0.05,0,0,0.05,10,0)" xlink:href="#aa"/><use transform="matrix(0.05,0,0,0.05,20,0)" xlink:href="#aa"/><use transform="matrix(0.05,0,0,0.05,30,0)" xlink:href="#ae"/><use transform="matrix(0.05,0,0,0.05,42,0)" xlink:href="#J"/><use transform="matrix(0.05,0,0,0.05,45.95,0)" xlink:href="#Q"/><use transform="matrix(0.05,0,0,0.05,55.95,0)" xlink:href="#M"/><use transform="matrix(0.05,0,0,0.05,60.95,0)" xlink:href="#P"/></g><path d="M108 0H70L1-190h34L89-25l56-165h34" id="aj"/><g id="l"><use transform="matrix(0.06234567901234567,0,0,0.06234567901234567,0,0)" xlink:href="#Z"/><use transform="matrix(0.06234567901234567,0,0,0.06234567901234567,14.96296296296296,0)" xlink:href="#O"/><use transform="matrix(0.06234567901234567,0,0,0.06234567901234567,27.432098765432094,0)" xlink:href="#M"/><use transform="matrix(0.06234567901234567,0,0,0.06234567901234567,33.66666666666666,0)" xlink:href="#ah"/><use transform="matrix(0.06234567901234567,0,0,0.06234567901234567,46.13580246913579,0)" xlink:href="#ae"/><use transform="matrix(0.06234567901234567,0,0,0.06234567901234567,61.09876543209875,0)" xlink:href="#aj"/><use transform="matrix(0.06234567901234567,0,0,0.06234567901234567,72.32098765432097,0)" xlink:href="#ag"/></g><g id="m"><use transform="matrix(0.06234567901234567,0,0,0.06234567901234567,0,0)" xlink:href="#af"/><use transform="matrix(0.06234567901234567,0,0,0.06234567901234567,14.96296296296296,0)" xlink:href="#Q"/><use transform="matrix(0.06234567901234567,0,0,0.06234567901234567,27.432098765432094,0)" xlink:href="#Q"/><use transform="matrix(0.06234567901234567,0,0,0.06234567901234567,39.90123456790123,0)" xlink:href="#ad"/><use transform="matrix(0.06234567901234567,0,0,0.06234567901234567,51.12345679012345,0)" xlink:href="#K"/><use transform="matrix(0.06234567901234567,0,0,0.06234567901234567,56.048765432098755,0)" xlink:href="#Y"/><use transform="matrix(0.06234567901234567,0,0,0.06234567901234567,68.51790123456789,0)" xlink:href="#ab"/><use transform="matrix(0.06234567901234567,0,0,0.06234567901234567,80.98703703703703,0)" xlink:href="#ae"/><use transform="matrix(0.06234567901234567,0,0,0.06234567901234567,95.94999999999999,0)" xlink:href="#aj"/><use transform="matrix(0.06234567901234567,0,0,0.06234567901234567,107.1722222222222,0)" xlink:href="#ag"/></g><g id="n"><use transform="matrix(0.06234567901234567,0,0,0.06234567901234567,0,0)" xlink:href="#Z"/><use transform="matrix(0.06234567901234567,0,0,0.06234567901234567,14.96296296296296,0)" xlink:href="#aa"/><use transform="matrix(0.06234567901234567,0,0,0.06234567901234567,27.432098765432094,0)" xlink:href="#R"/><use transform="matrix(0.06234567901234567,0,0,0.06234567901234567,46.073456790123444,0)" xlink:href="#K"/><use transform="matrix(0.06234567901234567,0,0,0.06234567901234567,50.99876543209875,0)" xlink:href="#Y"/><use transform="matrix(0.06234567901234567,0,0,0.06234567901234567,63.46790123456788,0)" xlink:href="#ae"/><use transform="matrix(0.06234567901234567,0,0,0.06234567901234567,78.43086419753084,0)" xlink:href="#aj"/><use transform="matrix(0.06234567901234567,0,0,0.06234567901234567,89.65308641975305,0)" xlink:href="#ag"/></g><path d="M30-248c87 1 191-15 191 75 0 78-77 80-158 76V0H30v-248zm33 125c57 0 124 11 124-50 0-59-68-47-124-48v98" id="ak"/><g id="o"><use transform="matrix(0.06234567901234567,0,0,0.06234567901234567,0,0)" xlink:href="#ak"/><use transform="matrix(0.06234567901234567,0,0,0.06234567901234567,14.96296296296296,0)" xlink:href="#ai"/><use transform="matrix(0.06234567901234567,0,0,0.06234567901234567,27.432098765432094,0)" xlink:href="#V"/><use transform="matrix(0.06234567901234567,0,0,0.06234567901234567,38.654320987654316,0)" xlink:href="#R"/><use transform="matrix(0.06234567901234567,0,0,0.06234567901234567,57.29567901234567,0)" xlink:href="#S"/><use transform="matrix(0.06234567901234567,0,0,0.06234567901234567,69.7648148148148,0)" xlink:href="#Y"/><use transform="matrix(0.06234567901234567,0,0,0.06234567901234567,82.23395061728394,0)" xlink:href="#M"/><use transform="matrix(0.06234567901234567,0,0,0.06234567901234567,88.46851851851851,0)" xlink:href="#ae"/><use transform="matrix(0.06234567901234567,0,0,0.06234567901234567,103.43148148148147,0)" xlink:href="#aj"/><use transform="matrix(0.06234567901234567,0,0,0.06234567901234567,114.65370370370368,0)" xlink:href="#ag"/></g><path d="M101-234c-31-9-42 10-38 44h38v23H63V0H32v-167H5v-23h27c-7-52 17-82 69-68v24" id="al"/><g id="p"><use transform="matrix(0.05,0,0,0.05,0,0)" xlink:href="#ag"/><use transform="matrix(0.05,0,0,0.05,9,0)" xlink:href="#Q"/><use transform="matrix(0.05,0,0,0.05,19,0)" xlink:href="#Y"/><use transform="matrix(0.05,0,0,0.05,29,0)" xlink:href="#al"/><use transform="matrix(0.05,0,0,0.05,34,0)" xlink:href="#K"/><use transform="matrix(0.05,0,0,0.05,37.95,0)" xlink:href="#T"/><use transform="matrix(0.05,0,0,0.05,43.900000000000006,0)" xlink:href="#R"/><use transform="matrix(0.05,0,0,0.05,58.85,0)" xlink:href="#ak"/><use transform="matrix(0.05,0,0,0.05,70.85000000000001,0)" xlink:href="#ai"/><use transform="matrix(0.05,0,0,0.05,80.85000000000001,0)" xlink:href="#V"/><use transform="matrix(0.05,0,0,0.05,89.85000000000001,0)" xlink:href="#R"/><use transform="matrix(0.05,0,0,0.05,104.80000000000001,0)" xlink:href="#S"/><use transform="matrix(0.05,0,0,0.05,114.80000000000001,0)" xlink:href="#Y"/><use transform="matrix(0.05,0,0,0.05,124.80000000000001,0)" xlink:href="#M"/></g><path d="M18-100v-36l175-74v27L42-118l151 64v27" id="am"/><path d="M18-27v-27l151-64-151-65v-27l175 74v36" id="an"/><g id="q"><use transform="matrix(0.06234567901234567,0,0,0.06234567901234567,0,0)" xlink:href="#am"/><use transform="matrix(0.06234567901234567,0,0,0.06234567901234567,13.09259259259259,0)" xlink:href="#am"/><use transform="matrix(0.06234567901234567,0,0,0.06234567901234567,26.18518518518518,0)" xlink:href="#K"/><use transform="matrix(0.06234567901234567,0,0,0.06234567901234567,31.11049382716049,0)" xlink:href="#Y"/><use transform="matrix(0.06234567901234567,0,0,0.06234567901234567,43.57962962962962,0)" xlink:href="#ag"/><use transform="matrix(0.06234567901234567,0,0,0.06234567901234567,54.80185185185184,0)" xlink:href="#J"/><use transform="matrix(0.06234567901234567,0,0,0.06234567901234567,59.72716049382715,0)" xlink:href="#O"/><use transform="matrix(0.06234567901234567,0,0,0.06234567901234567,72.19629629629628,0)" xlink:href="#aa"/><use transform="matrix(0.06234567901234567,0,0,0.06234567901234567,84.66543209876542,0)" xlink:href="#S"/><use transform="matrix(0.06234567901234567,0,0,0.06234567901234567,97.13456790123456,0)" xlink:href="#an"/><use transform="matrix(0.06234567901234567,0,0,0.06234567901234567,110.22716049382716,0)" xlink:href="#an"/></g><path d="M232-93c-1 65-40 97-104 97C67 4 28-28 28-90v-158h33c8 89-33 224 67 224 102 0 64-133 71-224h33v155" id="ao"/><g id="r"><use transform="matrix(0.05,0,0,0.05,0,0)" xlink:href="#ai"/><use transform="matrix(0.05,0,0,0.05,10,0)" xlink:href="#aa"/><use transform="matrix(0.05,0,0,0.05,20,0)" xlink:href="#aa"/><use transform="matrix(0.05,0,0,0.05,30,0)" xlink:href="#ao"/><use transform="matrix(0.05,0,0,0.05,42.95,0)" xlink:href="#P"/><use transform="matrix(0.05,0,0,0.05,51.95,0)" xlink:href="#S"/><use transform="matrix(0.05,0,0,0.05,61.95,0)" xlink:href="#T"/></g><g id="s"><use transform="matrix(0.05,0,0,0.05,0,0)" xlink:href="#aj"/><use transform="matrix(0.05,0,0,0.05,9,0)" xlink:href="#S"/><use transform="matrix(0.05,0,0,0.05,19,0)" xlink:href="#T"/><use transform="matrix(0.05,0,0,0.05,24.95,0)" xlink:href="#K"/><use transform="matrix(0.05,0,0,0.05,28.899999999999995,0)" xlink:href="#al"/><use transform="matrix(0.05,0,0,0.05,33.9,0)" xlink:href="#V"/><use transform="matrix(0.05,0,0,0.05,42.9,0)" xlink:href="#ao"/><use transform="matrix(0.05,0,0,0.05,55.85,0)" xlink:href="#P"/><use transform="matrix(0.05,0,0,0.05,64.85,0)" xlink:href="#S"/><use transform="matrix(0.05,0,0,0.05,74.85,0)" xlink:href="#T"/></g><g id="t"><use transform="matrix(0.05,0,0,0.05,0,0)" xlink:href="#O"/><use transform="matrix(0.05,0,0,0.05,10,0)" xlink:href="#L"/><use transform="matrix(0.05,0,0,0.05,20,0)" xlink:href="#aa"/><use transform="matrix(0.05,0,0,0.05,30,0)" xlink:href="#ai"/><use transform="matrix(0.05,0,0,0.05,40,0)" xlink:href="#M"/><use transform="matrix(0.05,0,0,0.05,45,0)" xlink:href="#S"/><use transform="matrix(0.05,0,0,0.05,55,0)" xlink:href="#ae"/><use transform="matrix(0.05,0,0,0.05,67,0)" xlink:href="#J"/><use transform="matrix(0.05,0,0,0.05,70.95,0)" xlink:href="#Q"/><use transform="matrix(0.05,0,0,0.05,80.95,0)" xlink:href="#M"/><use transform="matrix(0.05,0,0,0.05,85.95,0)" xlink:href="#P"/></g><g id="u"><use transform="matrix(0.05,0,0,0.05,0,0)" xlink:href="#R"/><use transform="matrix(0.05,0,0,0.05,14.950000000000001,0)" xlink:href="#ai"/><use transform="matrix(0.05,0,0,0.05,24.950000000000003,0)" xlink:href="#Y"/><use transform="matrix(0.05,0,0,0.05,34.95,0)" xlink:href="#ai"/><use transform="matrix(0.05,0,0,0.05,44.95,0)" xlink:href="#ab"/><use transform="matrix(0.05,0,0,0.05,54.95,0)" xlink:href="#S"/><use transform="matrix(0.05,0,0,0.05,64.95,0)" xlink:href="#U"/><use transform="matrix(0.05,0,0,0.05,78.95,0)" xlink:href="#V"/><use transform="matrix(0.05,0,0,0.05,87.95,0)" xlink:href="#R"/><use transform="matrix(0.05,0,0,0.05,102.9,0)" xlink:href="#P"/></g><g id="v"><use transform="matrix(0.05,0,0,0.05,0,0)" xlink:href="#ai"/><use transform="matrix(0.05,0,0,0.05,10,0)" xlink:href="#aa"/><use transform="matrix(0.05,0,0,0.05,20,0)" xlink:href="#R"/><use transform="matrix(0.05,0,0,0.05,34.95,0)" xlink:href="#K"/><use transform="matrix(0.05,0,0,0.05,38.900000000000006,0)" xlink:href="#Y"/><use transform="matrix(0.05,0,0,0.05,48.900000000000006,0)" xlink:href="#ak"/><use transform="matrix(0.05,0,0,0.05,60.900000000000006,0)" xlink:href="#ai"/><use transform="matrix(0.05,0,0,0.05,70.9,0)" xlink:href="#Y"/><use transform="matrix(0.05,0,0,0.05,80.9,0)" xlink:href="#S"/><use transform="matrix(0.05,0,0,0.05,90.9,0)" xlink:href="#J"/></g><path d="M141 0L90-78 38 0H4l68-98-65-92h35l48 74 47-74h35l-64 92 68 98h-35" id="ap"/><g id="w"><use transform="matrix(0.06234567901234567,0,0,0.06234567901234567,0,0)" xlink:href="#am"/><use transform="matrix(0.06234567901234567,0,0,0.06234567901234567,13.09259259259259,0)" xlink:href="#am"/><use transform="matrix(0.06234567901234567,0,0,0.06234567901234567,26.18518518518518,0)" xlink:href="#S"/><use transform="matrix(0.06234567901234567,0,0,0.06234567901234567,38.654320987654316,0)" xlink:href="#ap"/><use transform="matrix(0.06234567901234567,0,0,0.06234567901234567,49.87654320987654,0)" xlink:href="#M"/><use transform="matrix(0.06234567901234567,0,0,0.06234567901234567,56.1111111111111,0)" xlink:href="#S"/><use transform="matrix(0.06234567901234567,0,0,0.06234567901234567,68.58024691358023,0)" xlink:href="#Y"/><use transform="matrix(0.06234567901234567,0,0,0.06234567901234567,81.04938271604937,0)" xlink:href="#aa"/><use transform="matrix(0.06234567901234567,0,0,0.06234567901234567,93.5185185185185,0)" xlink:href="#P"/><use transform="matrix(0.06234567901234567,0,0,0.06234567901234567,104.74074074074072,0)" xlink:href="#an"/><use transform="matrix(0.06234567901234567,0,0,0.06234567901234567,117.83333333333331,0)" xlink:href="#an"/></g><path d="M127-220V0H93v-220H8v-28h204v28h-85" id="aq"/><path d="M140-251c81 0 123 46 123 126C263-53 228-8 163 1c7 30 30 48 69 40v23c-55 16-95-15-103-61C56-3 17-48 17-125c0-80 42-126 123-126zm0 227c63 0 89-41 89-101s-29-99-89-99c-61 0-89 39-89 99S79-25 140-24" id="ar"/><g id="x"><use transform="matrix(0.05,0,0,0.05,0,0)" xlink:href="#L"/><use transform="matrix(0.05,0,0,0.05,10,0)" xlink:href="#O"/><use transform="matrix(0.05,0,0,0.05,20,0)" xlink:href="#P"/><use transform="matrix(0.05,0,0,0.05,29,0)" xlink:href="#ah"/><use transform="matrix(0.05,0,0,0.05,39,0)" xlink:href="#aq"/><use transform="matrix(0.05,0,0,0.05,47.95,0)" xlink:href="#Q"/><use transform="matrix(0.05,0,0,0.05,57.95,0)" xlink:href="#ar"/><use transform="matrix(0.05,0,0,0.05,71.95,0)" xlink:href="#O"/><use transform="matrix(0.05,0,0,0.05,81.95,0)" xlink:href="#O"/><use transform="matrix(0.05,0,0,0.05,91.95,0)" xlink:href="#S"/><use transform="matrix(0.05,0,0,0.05,101.95,0)" xlink:href="#O"/><use transform="matrix(0.05,0,0,0.05,111.95,0)" xlink:href="#S"/></g><g id="y"><use transform="matrix(0.05,0,0,0.05,0,0)" xlink:href="#ag"/><use transform="matrix(0.05,0,0,0.05,9,0)" xlink:href="#Q"/><use transform="matrix(0.05,0,0,0.05,19,0)" xlink:href="#Y"/><use transform="matrix(0.05,0,0,0.05,29,0)" xlink:href="#al"/><use transform="matrix(0.05,0,0,0.05,34,0)" xlink:href="#K"/><use transform="matrix(0.05,0,0,0.05,37.95,0)" xlink:href="#T"/><use transform="matrix(0.05,0,0,0.05,43.900000000000006,0)" xlink:href="#R"/><use transform="matrix(0.05,0,0,0.05,58.85,0)" xlink:href="#ae"/><use transform="matrix(0.05,0,0,0.05,70.85000000000001,0)" xlink:href="#J"/><use transform="matrix(0.05,0,0,0.05,74.80000000000001,0)" xlink:href="#Q"/><use transform="matrix(0.05,0,0,0.05,84.80000000000001,0)" xlink:href="#M"/></g><path d="M24-231v-30h32v30H24zM-9 49c24 4 33-6 33-30v-209h32V24c2 40-23 58-65 49V49" id="as"/><g id="z"><use transform="matrix(0.05,0,0,0.05,0,0)" xlink:href="#T"/><use transform="matrix(0.05,0,0,0.05,5.95,0)" xlink:href="#S"/><use transform="matrix(0.05,0,0,0.05,15.949999999999998,0)" xlink:href="#as"/><use transform="matrix(0.05,0,0,0.05,19.9,0)" xlink:href="#S"/><use transform="matrix(0.05,0,0,0.05,29.899999999999995,0)" xlink:href="#ag"/><use transform="matrix(0.05,0,0,0.05,38.9,0)" xlink:href="#M"/><use transform="matrix(0.05,0,0,0.05,43.9,0)" xlink:href="#ae"/><use transform="matrix(0.05,0,0,0.05,55.900000000000006,0)" xlink:href="#J"/><use transform="matrix(0.05,0,0,0.05,59.85,0)" xlink:href="#Q"/><use transform="matrix(0.05,0,0,0.05,69.85,0)" xlink:href="#M"/></g><g id="A"><use transform="matrix(0.05,0,0,0.05,0,0)" xlink:href="#ab"/><use transform="matrix(0.05,0,0,0.05,10,0)" xlink:href="#S"/><use transform="matrix(0.05,0,0,0.05,20,0)" xlink:href="#M"/><use transform="matrix(0.05,0,0,0.05,25,0)" xlink:href="#ae"/><use transform="matrix(0.05,0,0,0.05,37,0)" xlink:href="#J"/><use transform="matrix(0.05,0,0,0.05,40.95,0)" xlink:href="#Q"/><use transform="matrix(0.05,0,0,0.05,50.95,0)" xlink:href="#M"/><use transform="matrix(0.05,0,0,0.05,55.95,0)" xlink:href="#P"/></g><g id="B"><use transform="matrix(0.05,0,0,0.05,0,0)" xlink:href="#L"/><use transform="matrix(0.05,0,0,0.05,10,0)" xlink:href="#O"/><use transform="matrix(0.05,0,0,0.05,20,0)" xlink:href="#M"/><use transform="matrix(0.05,0,0,0.05,25,0)" xlink:href="#ae"/><use transform="matrix(0.05,0,0,0.05,37,0)" xlink:href="#J"/><use transform="matrix(0.05,0,0,0.05,40.95,0)" xlink:href="#Q"/><use transform="matrix(0.05,0,0,0.05,50.95,0)" xlink:href="#M"/><use transform="matrix(0.05,0,0,0.05,55.95,0)" xlink:href="#P"/></g><g id="C"><use transform="matrix(0.05,0,0,0.05,0,0)" xlink:href="#ai"/><use transform="matrix(0.05,0,0,0.05,10,0)" xlink:href="#L"/><use transform="matrix(0.05,0,0,0.05,20,0)" xlink:href="#L"/><use transform="matrix(0.05,0,0,0.05,30,0)" xlink:href="#T"/><use transform="matrix(0.05,0,0,0.05,35.95,0)" xlink:href="#Q"/><use transform="matrix(0.05,0,0,0.05,45.95,0)" xlink:href="#aj"/><use transform="matrix(0.05,0,0,0.05,54.95,0)" xlink:href="#S"/><use transform="matrix(0.05,0,0,0.05,64.95,0)" xlink:href="#U"/><use transform="matrix(0.05,0,0,0.05,78.95,0)" xlink:href="#V"/><use transform="matrix(0.05,0,0,0.05,87.95,0)" xlink:href="#R"/></g><g id="D"><use transform="matrix(0.05,0,0,0.05,0,0)" xlink:href="#al"/><use transform="matrix(0.05,0,0,0.05,5,0)" xlink:href="#T"/><use transform="matrix(0.05,0,0,0.05,10.95,0)" xlink:href="#S"/><use transform="matrix(0.05,0,0,0.05,20.95,0)" xlink:href="#S"/><use transform="matrix(0.05,0,0,0.05,30.950000000000003,0)" xlink:href="#ae"/><use transform="matrix(0.05,0,0,0.05,42.95,0)" xlink:href="#J"/><use transform="matrix(0.05,0,0,0.05,46.900000000000006,0)" xlink:href="#Q"/><use transform="matrix(0.05,0,0,0.05,56.900000000000006,0)" xlink:href="#M"/></g><g id="E"><use transform="matrix(0.05,0,0,0.05,0,0)" xlink:href="#aj"/><use transform="matrix(0.05,0,0,0.05,9,0)" xlink:href="#K"/><use transform="matrix(0.05,0,0,0.05,12.949999999999998,0)" xlink:href="#S"/><use transform="matrix(0.05,0,0,0.05,22.95,0)" xlink:href="#X"/><use transform="matrix(0.05,0,0,0.05,35.9,0)" xlink:href="#ak"/><use transform="matrix(0.05,0,0,0.05,47.9,0)" xlink:href="#Q"/><use transform="matrix(0.05,0,0,0.05,57.900000000000006,0)" xlink:href="#P"/><use transform="matrix(0.05,0,0,0.05,66.9,0)" xlink:href="#K"/><use transform="matrix(0.05,0,0,0.05,70.85000000000001,0)" xlink:href="#M"/><use transform="matrix(0.05,0,0,0.05,75.85000000000001,0)" xlink:href="#K"/><use transform="matrix(0.05,0,0,0.05,79.80000000000001,0)" xlink:href="#Q"/><use transform="matrix(0.05,0,0,0.05,89.80000000000001,0)" xlink:href="#Y"/></g><path d="M266 0h-40l-56-210L115 0H75L2-248h35L96-30l15-64 43-154h32l59 218 59-218h35" id="at"/><g id="F"><use transform="matrix(0.05,0,0,0.05,0,0)" xlink:href="#aj"/><use transform="matrix(0.05,0,0,0.05,9,0)" xlink:href="#K"/><use transform="matrix(0.05,0,0,0.05,12.949999999999998,0)" xlink:href="#S"/><use transform="matrix(0.05,0,0,0.05,22.95,0)" xlink:href="#X"/><use transform="matrix(0.05,0,0,0.05,35.9,0)" xlink:href="#at"/><use transform="matrix(0.05,0,0,0.05,52.2,0)" xlink:href="#ai"/><use transform="matrix(0.05,0,0,0.05,62.2,0)" xlink:href="#K"/><use transform="matrix(0.05,0,0,0.05,66.15,0)" xlink:href="#M"/><use transform="matrix(0.05,0,0,0.05,71.15,0)" xlink:href="#J"/><use transform="matrix(0.05,0,0,0.05,75.10000000000001,0)" xlink:href="#K"/><use transform="matrix(0.05,0,0,0.05,79.05000000000001,0)" xlink:href="#P"/><use transform="matrix(0.05,0,0,0.05,88.05000000000001,0)" xlink:href="#M"/></g><g id="G"><use transform="matrix(0.05,0,0,0.05,0,0)" xlink:href="#ab"/><use transform="matrix(0.05,0,0,0.05,10,0)" xlink:href="#S"/><use transform="matrix(0.05,0,0,0.05,20,0)" xlink:href="#M"/><use transform="matrix(0.05,0,0,0.05,25,0)" xlink:href="#ar"/><use transform="matrix(0.05,0,0,0.05,39,0)" xlink:href="#O"/><use transform="matrix(0.05,0,0,0.05,49,0)" xlink:href="#S"/><use transform="matrix(0.05,0,0,0.05,59,0)" xlink:href="#O"/><use transform="matrix(0.05,0,0,0.05,69,0)" xlink:href="#S"/></g><g id="H"><use transform="matrix(0.05,0,0,0.05,0,0)" xlink:href="#ab"/><use transform="matrix(0.05,0,0,0.05,10,0)" xlink:href="#S"/><use transform="matrix(0.05,0,0,0.05,20,0)" xlink:href="#M"/><use transform="matrix(0.05,0,0,0.05,25,0)" xlink:href="#ak"/><use transform="matrix(0.05,0,0,0.05,37,0)" xlink:href="#Q"/><use transform="matrix(0.05,0,0,0.05,47,0)" xlink:href="#P"/><use transform="matrix(0.05,0,0,0.05,56,0)" xlink:href="#K"/><use transform="matrix(0.05,0,0,0.05,59.95,0)" xlink:href="#M"/><use transform="matrix(0.05,0,0,0.05,64.95,0)" xlink:href="#K"/><use transform="matrix(0.05,0,0,0.05,68.9,0)" xlink:href="#Q"/><use transform="matrix(0.05,0,0,0.05,78.9,0)" xlink:href="#Y"/></g></defs></g></svg>